<?xml version="1.0" encoding="UTF-8" standalone="no"?>
<!DOCTYPE svg PUBLIC "-//W3C//DTD SVG 1.1//EN" "http://www.w3.org/Graphics/SVG/1.1/DTD/svg11.dtd">
<svg width="100%" height="100%" viewBox="0 0 568 571" version="1.1" xmlns="http://www.w3.org/2000/svg" xmlns:xlink="http://www.w3.org/1999/xlink" xml:space="preserve" xmlns:serif="http://www.serif.com/" style="fill-rule:evenodd;clip-rule:evenodd;stroke-linejoin:round;stroke-miterlimit:2;">
    <g transform="matrix(4.16667,0,0,4.16667,-1250.67,-8840.29)">
        <path d="M369.406,2237.63C342.741,2237.63 321.048,2215.84 321.048,2189.05C321.048,2162.26 342.741,2140.46 369.406,2140.46C396.071,2140.46 417.764,2162.26 417.764,2189.05C417.764,2215.84 396.071,2237.63 369.406,2237.63ZM369.406,2121.79C332.494,2121.79 302.463,2151.96 302.463,2189.05C302.463,2203.06 306.753,2216.07 314.075,2226.86L300.994,2250.4C298.344,2255.17 303.587,2260.44 308.335,2257.78L331.774,2244.64C342.506,2251.99 355.463,2256.3 369.406,2256.3C406.318,2256.3 436.349,2226.13 436.349,2189.05C436.349,2151.96 406.318,2121.79 369.406,2121.79Z" style="fill:white;fill-rule:nonzero;stroke:rgb(239,99,34);stroke-width:0.24px;"/>
    </g>
    <g transform="matrix(4.16667,0,0,4.16667,-1250.67,-8840.29)">
        <path d="M391.814,2160.4C392.216,2161.05 392.461,2161.82 392.461,2162.64C392.461,2165.02 390.534,2166.94 388.156,2166.94C385.779,2166.94 383.853,2165.02 383.853,2162.64C383.853,2160.26 385.779,2158.34 388.156,2158.34C388.451,2158.34 388.739,2158.37 389.017,2158.42C383.387,2154.83 376.708,2152.75 369.537,2152.75C349.489,2152.75 333.237,2169 333.237,2189.05C333.237,2202.06 340.09,2213.47 350.381,2219.88L350.381,2194.91L347.068,2191.08L350.583,2191.08C351.379,2185.3 354.743,2180.35 359.486,2177.41L359.739,2177.26C360.139,2177.02 360.549,2176.79 360.967,2176.58L361.158,2176.48C361.65,2176.24 362.152,2176.02 362.666,2175.82L362.703,2175.81C363.177,2175.63 363.663,2175.47 364.155,2175.33C364.306,2175.28 364.459,2175.25 364.611,2175.2C364.975,2175.11 365.344,2175.02 365.717,2174.95C365.896,2174.91 366.075,2174.87 366.257,2174.84C366.456,2174.81 366.656,2174.78 366.858,2174.75L366.857,2174.75C366.857,2174.75 367.745,2172.8 368.487,2171.17C367.756,2170.84 367.246,2170.1 367.246,2169.25C367.246,2168.08 368.195,2167.13 369.366,2167.13C370.537,2167.13 371.487,2168.08 371.487,2169.25C371.487,2170.1 370.977,2170.84 370.245,2171.17L371.854,2174.7C372.223,2174.75 372.59,2174.8 372.952,2174.86L373.114,2174.89C373.631,2174.99 374.137,2175.11 374.638,2175.25C374.746,2175.28 374.853,2175.31 374.96,2175.34C375.408,2175.47 375.85,2175.62 376.283,2175.78L376.447,2175.84C376.945,2176.03 377.433,2176.25 377.909,2176.48L378.064,2176.56C383.604,2179.33 387.613,2184.7 388.492,2191.08L392.008,2191.08L388.694,2194.91L388.694,2219.88C398.985,2213.47 405.838,2202.06 405.838,2189.05C405.838,2177.4 400.344,2167.04 391.814,2160.4Z" style="fill:white;fill-rule:nonzero;stroke:rgb(239,99,34);stroke-width:0.24px;"/>
    </g>
    <g transform="matrix(4.16667,0,0,4.16667,-1250.67,-8840.29)">
        <path d="M369.537,2194.83C365.521,2194.83 362.266,2198.08 362.266,2202.1L362.266,2224.62C364.615,2225.1 367.047,2225.35 369.537,2225.35C372.028,2225.35 374.46,2225.1 376.809,2224.62L376.809,2202.1C376.809,2198.08 373.553,2194.83 369.537,2194.83Z" style="fill:white;fill-rule:nonzero;stroke:rgb(239,99,34);stroke-width:0.24px;"/>
    </g>
</svg>
