<?xml version="1.0" encoding="UTF-8" standalone="no"?>
<!DOCTYPE svg PUBLIC "-//W3C//DTD SVG 1.1//EN" "http://www.w3.org/Graphics/SVG/1.1/DTD/svg11.dtd">
<svg width="100%" height="100%" viewBox="0 0 2671 760" version="1.1" xmlns="http://www.w3.org/2000/svg" xmlns:xlink="http://www.w3.org/1999/xlink" xml:space="preserve" xmlns:serif="http://www.serif.com/" style="fill-rule:evenodd;clip-rule:evenodd;stroke-linejoin:round;stroke-miterlimit:2;">
    <g transform="matrix(4.16667,0,0,4.16667,-7221.21,-10334.4)">
        <path d="M1952.88,2529.77C1953.72,2530.61 1954.14,2531.62 1954.14,2532.79L1954.14,2574.2C1954.14,2575.46 1953.72,2576.47 1952.96,2577.31C1952.12,2578.15 1951.11,2578.57 1949.86,2578.57C1948.6,2578.57 1947.59,2578.15 1946.83,2577.31C1945.99,2576.47 1945.57,2575.46 1945.57,2574.2L1945.57,2532.79C1945.57,2531.7 1945.99,2530.69 1946.83,2529.77C1947.59,2528.93 1948.6,2528.51 1949.86,2528.51C1950.95,2528.51 1951.95,2528.93 1952.88,2529.77ZM1953.97,2514.65C1955.06,2515.74 1955.65,2517.17 1955.65,2518.77C1955.65,2520.36 1955.06,2521.79 1953.97,2522.88C1952.88,2524.06 1951.45,2524.65 1949.86,2524.65C1948.26,2524.65 1946.91,2524.06 1945.82,2522.88C1944.65,2521.79 1944.06,2520.36 1944.06,2518.77C1944.06,2517.17 1944.65,2515.74 1945.82,2514.65C1946.91,2513.56 1948.26,2512.97 1949.86,2512.97C1951.45,2512.97 1952.79,2513.56 1953.97,2514.65Z" style="fill:rgb(241,93,39);fill-rule:nonzero;stroke:rgb(239,99,34);stroke-width:0.24px;"/>
    </g>
    <g transform="matrix(4.16667,0,0,4.16667,-7221.21,-10334.4)">
        <path d="M1994.46,2559C1998.65,2559 2002.35,2558.16 2005.63,2556.4C2008.9,2554.72 2011.42,2552.37 2013.27,2549.43C2015.03,2546.49 2015.96,2543.04 2015.96,2539.18C2015.96,2534.89 2014.87,2531.45 2012.6,2528.85C2010.33,2526.24 2007.39,2524.48 2003.69,2523.55C2006.3,2522.3 2008.31,2520.53 2009.83,2518.26C2011.25,2516.08 2012.01,2513.64 2012.01,2510.87C2012.01,2507.43 2011.17,2504.4 2009.57,2501.8C2007.89,2499.2 2005.63,2497.1 2002.77,2495.59C1999.83,2494.16 1996.47,2493.4 1992.69,2493.4L1972.62,2493.4C1971.36,2493.4 1970.35,2493.82 1969.51,2494.58C1968.67,2495.42 1968.25,2496.51 1968.25,2497.77L1968.25,2554.63C1968.25,2555.89 1968.67,2556.9 1969.51,2557.74C1970.35,2558.58 1971.36,2559 1972.62,2559L1994.46,2559ZM1976.98,2528.43L1994.46,2528.43C1997.06,2528.43 1999.33,2528.85 2001.26,2529.6C2003.19,2530.44 2004.79,2531.62 2005.88,2533.21C2006.97,2534.81 2007.56,2536.74 2007.56,2539.18C2007.56,2541.78 2006.97,2543.88 2005.88,2545.64C2004.79,2547.41 2003.19,2548.67 2001.26,2549.59C1999.33,2550.52 1997.06,2550.94 1994.46,2550.94L1976.98,2550.94L1976.98,2528.43ZM1976.98,2501.46L1992.69,2501.46C1995.88,2501.46 1998.49,2502.22 2000.59,2503.73C2002.6,2505.33 2003.61,2507.68 2003.61,2510.87C2003.61,2514.06 2002.6,2516.41 2000.59,2518.01C1998.49,2519.61 1995.88,2520.36 1992.69,2520.36L1976.98,2520.36L1976.98,2501.46Z" style="fill:rgb(241,93,39);fill-rule:nonzero;stroke:rgb(239,99,34);stroke-width:0.24px;"/>
    </g>
    <g transform="matrix(4.16667,0,0,4.16667,-7221.21,-10334.4)">
        <path d="M2036.37,2557.74C2037.12,2556.98 2037.54,2555.98 2037.54,2554.72L2037.54,2517.34C2037.54,2516.08 2037.12,2514.99 2036.37,2514.23C2035.61,2513.48 2034.52,2513.06 2033.26,2513.06C2032,2513.06 2030.99,2513.48 2030.24,2514.23C2029.4,2514.99 2028.98,2516.08 2028.98,2517.34L2028.98,2554.72C2028.98,2555.98 2029.4,2556.98 2030.24,2557.74C2030.99,2558.58 2032,2559 2033.26,2559C2034.52,2559 2035.61,2558.58 2036.37,2557.74ZM2037.21,2503.9C2038.3,2502.81 2038.8,2501.55 2038.8,2500.04C2038.8,2498.53 2038.3,2497.18 2037.21,2496.09C2036.12,2495 2034.77,2494.49 2033.26,2494.49C2031.75,2494.49 2030.49,2495 2029.4,2496.09C2028.3,2497.18 2027.72,2498.53 2027.72,2500.04C2027.72,2501.55 2028.3,2502.81 2029.4,2503.9C2030.49,2504.99 2031.75,2505.58 2033.26,2505.58C2034.77,2505.58 2036.12,2504.99 2037.21,2503.9Z" style="fill:rgb(241,93,39);fill-rule:nonzero;stroke:rgb(239,99,34);stroke-width:0.24px;"/>
    </g>
    <g transform="matrix(4.16667,0,0,4.16667,-7221.21,-10334.4)">
        <path d="M2083.24,2557.91C2086.01,2556.98 2088.36,2555.72 2090.29,2554.21C2091.21,2553.46 2091.72,2552.62 2091.63,2551.61C2091.55,2550.6 2091.05,2549.68 2090.12,2548.84C2089.37,2548.25 2088.53,2547.91 2087.6,2547.91C2086.59,2548 2085.67,2548.33 2084.83,2548.92C2083.74,2549.76 2082.23,2550.52 2080.46,2551.11C2078.62,2551.78 2076.85,2552.11 2075.09,2552.11C2071.9,2552.11 2069.04,2551.44 2066.6,2550.01C2064.17,2548.59 2062.24,2546.74 2060.81,2544.3C2059.38,2541.87 2058.71,2539.18 2058.71,2536.07C2058.71,2532.96 2059.3,2530.19 2060.47,2527.76C2061.65,2525.32 2063.41,2523.47 2065.68,2522.04C2067.95,2520.62 2070.64,2519.94 2073.83,2519.94C2076.6,2519.94 2079.03,2520.62 2080.97,2521.88C2082.9,2523.14 2084.41,2524.9 2085.5,2527.08C2086.59,2529.35 2087.1,2531.87 2087.18,2534.64L2090.63,2532.29L2057.03,2532.29L2057.03,2539.01L2090.88,2539.01C2091.97,2539.01 2092.89,2538.67 2093.65,2537.92C2094.41,2537.25 2094.74,2536.41 2094.74,2535.31C2094.74,2530.86 2093.9,2527 2092.31,2523.55C2090.63,2520.2 2088.19,2517.51 2085.08,2515.58C2081.97,2513.64 2078.2,2512.72 2073.83,2512.72C2069.38,2512.72 2065.51,2513.73 2062.07,2515.66C2058.62,2517.68 2056.02,2520.45 2054.09,2523.89C2052.16,2527.42 2051.15,2531.45 2051.15,2536.07C2051.15,2540.61 2052.16,2544.64 2054.26,2548.08C2056.27,2551.61 2059.13,2554.38 2062.74,2556.31C2066.35,2558.33 2070.47,2559.34 2075.09,2559.34C2077.69,2559.34 2080.38,2558.83 2083.24,2557.91Z" style="fill:rgb(241,93,39);fill-rule:nonzero;stroke:rgb(239,99,34);stroke-width:0.24px;"/>
    </g>
    <g transform="matrix(4.16667,0,0,4.16667,-7221.21,-10334.4)">
        <path d="M2113.05,2557.82C2113.81,2557.07 2114.23,2556.06 2114.23,2554.8L2114.23,2531.11C2114.23,2529.01 2114.82,2527.17 2115.91,2525.57C2117,2523.97 2118.51,2522.72 2120.44,2521.79C2122.38,2520.87 2124.47,2520.36 2126.83,2520.36C2129.43,2520.36 2131.7,2520.87 2133.71,2521.79C2135.65,2522.8 2137.24,2524.31 2138.42,2526.33C2139.59,2528.34 2140.18,2530.95 2140.18,2534.14L2140.18,2554.8C2140.18,2556.06 2140.6,2557.07 2141.44,2557.82C2142.2,2558.66 2143.21,2559.08 2144.47,2559.08C2145.72,2559.08 2146.73,2558.66 2147.57,2557.82C2148.33,2557.07 2148.75,2556.06 2148.75,2554.8L2148.75,2534.14C2148.75,2529.52 2147.91,2525.57 2146.14,2522.38C2144.38,2519.19 2141.95,2516.75 2138.92,2515.07C2135.81,2513.48 2132.37,2512.64 2128.51,2512.64C2124.81,2512.64 2121.45,2513.48 2118.51,2515.07C2116.92,2515.99 2115.4,2517 2114.23,2518.35L2114.23,2517.34C2114.23,2516.08 2113.81,2514.99 2113.05,2514.23C2112.3,2513.48 2111.2,2513.06 2109.94,2513.06C2108.68,2513.06 2107.68,2513.48 2106.92,2514.23C2106.08,2514.99 2105.66,2516.08 2105.66,2517.34L2105.66,2554.8C2105.66,2556.06 2106.08,2557.07 2106.92,2557.82C2107.68,2558.66 2108.68,2559.08 2109.94,2559.08C2111.2,2559.08 2112.3,2558.66 2113.05,2557.82Z" style="fill:rgb(241,93,39);fill-rule:nonzero;stroke:rgb(239,99,34);stroke-width:0.24px;"/>
    </g>
    <g transform="matrix(4.16667,0,0,4.16667,-7221.21,-10334.4)">
        <path d="M2223,2557.82C2223.76,2557.07 2224.18,2556.06 2224.18,2554.8L2224.18,2531.11C2224.18,2528.01 2225.1,2525.4 2227.03,2523.39C2228.88,2521.37 2231.23,2520.36 2234.17,2520.36C2236.94,2520.36 2239.21,2521.2 2240.97,2522.88C2242.74,2524.65 2243.58,2527.25 2243.58,2530.78L2243.58,2554.8C2243.58,2556.06 2244,2557.07 2244.84,2557.82C2245.59,2558.66 2246.6,2559.08 2247.86,2559.08C2249.12,2559.08 2250.21,2558.66 2250.97,2557.82C2251.72,2557.07 2252.14,2556.06 2252.14,2554.8L2252.14,2530.78C2252.14,2526.91 2251.47,2523.64 2250.13,2520.87C2248.7,2518.18 2246.77,2516.16 2244.33,2514.74C2241.9,2513.31 2239.04,2512.64 2235.85,2512.64C2232.24,2512.64 2228.96,2513.39 2226.19,2514.99C2224.09,2516.16 2222.41,2517.59 2221.24,2519.27C2219.89,2517.34 2218.3,2515.91 2216.36,2514.74C2213.93,2513.31 2211.07,2512.64 2207.88,2512.64C2204.6,2512.64 2201.66,2513.39 2199.06,2514.99C2197.97,2515.66 2196.96,2516.41 2196.04,2517.34C2196.12,2516.16 2195.7,2515.07 2194.95,2514.32C2194.19,2513.56 2193.1,2513.14 2191.84,2513.14C2190.58,2513.14 2189.57,2513.56 2188.81,2514.32C2187.97,2515.07 2187.55,2516.16 2187.55,2517.42L2187.55,2554.8C2187.55,2556.06 2187.97,2557.07 2188.81,2557.82C2189.57,2558.66 2190.58,2559.08 2191.84,2559.08C2193.1,2559.08 2194.19,2558.66 2194.95,2557.82C2195.7,2557.07 2196.12,2556.06 2196.12,2554.8L2196.12,2531.11C2196.12,2528.01 2197.05,2525.4 2198.98,2523.39C2200.91,2521.37 2203.26,2520.36 2206.2,2520.36C2208.97,2520.36 2211.24,2521.2 2213,2522.88C2214.77,2524.65 2215.61,2527.25 2215.61,2530.78L2215.61,2554.8C2215.61,2556.06 2216.03,2557.07 2216.87,2557.82C2217.62,2558.66 2218.63,2559.08 2219.89,2559.08C2221.15,2559.08 2222.24,2558.66 2223,2557.82Z" style="fill:rgb(241,93,39);fill-rule:nonzero;stroke:rgb(239,99,34);stroke-width:0.24px;"/>
    </g>
    <g transform="matrix(4.16667,0,0,4.16667,-7221.21,-10334.4)">
        <path d="M2274.57,2557.74C2275.33,2556.98 2275.75,2555.98 2275.75,2554.72L2275.75,2517.34C2275.75,2516.08 2275.33,2514.99 2274.57,2514.23C2273.82,2513.48 2272.72,2513.06 2271.46,2513.06C2270.2,2513.06 2269.2,2513.48 2268.44,2514.23C2267.6,2514.99 2267.18,2516.08 2267.18,2517.34L2267.18,2554.72C2267.18,2555.98 2267.6,2556.98 2268.44,2557.74C2269.2,2558.58 2270.2,2559 2271.46,2559C2272.72,2559 2273.82,2558.58 2274.57,2557.74ZM2274.74,2504.66L2282.89,2496.51C2283.31,2496.09 2283.64,2495.67 2283.81,2495.16C2283.98,2494.66 2284.06,2494.16 2284.06,2493.57C2284.06,2492.31 2283.64,2491.3 2282.89,2490.46C2282.13,2489.62 2281.04,2489.2 2279.78,2489.2C2278.6,2489.2 2277.6,2489.62 2276.76,2490.46L2268.52,2498.69C2267.85,2499.45 2267.51,2500.37 2267.51,2501.55C2267.51,2502.81 2267.93,2503.82 2268.78,2504.57C2269.53,2505.41 2270.54,2505.83 2271.8,2505.83C2272.97,2505.83 2273.98,2505.41 2274.74,2504.66Z" style="fill:rgb(241,93,39);fill-rule:nonzero;stroke:rgb(239,99,34);stroke-width:0.24px;"/>
    </g>
    <g transform="matrix(4.16667,0,0,4.16667,-7221.21,-10334.4)">
        <path d="M2324.55,2556.31C2327.99,2554.38 2330.76,2551.61 2332.69,2548.08C2334.62,2544.64 2335.63,2540.61 2335.63,2536.07C2335.63,2531.45 2334.62,2527.42 2332.69,2523.89C2330.68,2520.45 2327.91,2517.68 2324.46,2515.66C2321.02,2513.73 2316.99,2512.72 2312.53,2512.72C2308,2512.72 2303.97,2513.73 2300.52,2515.66C2297.08,2517.68 2294.31,2520.45 2292.38,2523.89C2290.36,2527.42 2289.35,2531.45 2289.35,2536.07C2289.35,2540.61 2290.36,2544.64 2292.38,2548.08C2294.31,2551.61 2297.08,2554.38 2300.52,2556.31C2303.97,2558.33 2308,2559.34 2312.53,2559.34C2317.07,2559.34 2321.1,2558.33 2324.55,2556.31ZM2304.81,2549.76C2302.54,2548.42 2300.78,2546.57 2299.52,2544.22C2298.26,2541.87 2297.58,2539.18 2297.58,2536.07C2297.58,2532.96 2298.26,2530.27 2299.52,2527.84C2300.78,2525.49 2302.54,2523.64 2304.81,2522.3C2307.08,2520.95 2309.6,2520.28 2312.53,2520.28C2315.47,2520.28 2317.99,2520.95 2320.26,2522.3C2322.53,2523.64 2324.29,2525.49 2325.55,2527.84C2326.81,2530.27 2327.4,2532.96 2327.4,2536.07C2327.4,2539.18 2326.81,2541.87 2325.55,2544.22C2324.29,2546.57 2322.53,2548.42 2320.26,2549.76C2317.99,2551.11 2315.47,2551.78 2312.53,2551.78C2309.6,2551.78 2307.08,2551.11 2304.81,2549.76Z" style="fill:rgb(241,93,39);fill-rule:nonzero;stroke:rgb(239,99,34);stroke-width:0.24px;"/>
    </g>
    <g transform="matrix(4.16667,0,0,4.16667,-7221.21,-10334.4)">
        <path d="M2353.86,2542.2C2354.7,2541.36 2355.12,2540.35 2355.12,2539.18L2355.12,2497.77C2355.12,2496.51 2354.7,2495.5 2353.94,2494.66C2353.1,2493.82 2352.1,2493.4 2350.84,2493.4C2349.58,2493.4 2348.57,2493.82 2347.81,2494.66C2346.97,2495.5 2346.55,2496.51 2346.55,2497.77L2346.55,2539.18C2346.55,2540.27 2346.97,2541.28 2347.81,2542.12C2348.57,2543.04 2349.58,2543.46 2350.84,2543.46C2351.93,2543.46 2352.93,2543.04 2353.86,2542.2ZM2354.95,2557.32C2356.04,2556.23 2356.63,2554.8 2356.63,2553.2C2356.63,2551.61 2356.04,2550.18 2354.95,2549.01C2353.86,2547.91 2352.43,2547.33 2350.84,2547.33C2349.24,2547.33 2347.89,2547.91 2346.8,2549.01C2345.63,2550.18 2345.04,2551.61 2345.04,2553.2C2345.04,2554.8 2345.63,2556.23 2346.8,2557.32C2347.89,2558.41 2349.24,2559 2350.84,2559C2352.43,2559 2353.77,2558.41 2354.95,2557.32Z" style="fill:rgb(241,93,39);fill-rule:nonzero;stroke:rgb(239,99,34);stroke-width:0.24px;"/>
    </g>
    <g transform="matrix(4.16667,0,0,4.16667,-7221.21,-10334.4)">
        <path d="M1947.92,2607.35C1948.05,2607.22 1948.13,2607.04 1948.13,2606.8L1948.13,2587.86C1948.13,2587.63 1948.05,2587.44 1947.92,2587.28C1947.77,2587.15 1947.58,2587.08 1947.34,2587.08C1947.11,2587.08 1946.92,2587.15 1946.79,2587.28C1946.63,2587.44 1946.56,2587.63 1946.56,2587.86L1946.56,2606.8C1946.56,2607.04 1946.63,2607.22 1946.79,2607.35C1946.92,2607.51 1947.11,2607.59 1947.34,2607.59C1947.58,2607.59 1947.77,2607.51 1947.92,2607.35Z" style="fill:rgb(241,93,39);fill-rule:nonzero;stroke:rgb(239,99,34);stroke-width:0.24px;"/>
    </g>
    <g transform="matrix(4.16667,0,0,4.16667,-7221.21,-10334.4)">
        <path d="M1954.49,2607.35C1954.62,2607.22 1954.7,2607.04 1954.7,2606.8L1954.7,2598.76C1954.7,2597.98 1954.91,2597.27 1955.36,2596.64C1955.8,2596.01 1956.38,2595.51 1957.14,2595.14C1957.9,2594.8 1958.75,2594.61 1959.69,2594.61C1960.66,2594.61 1961.53,2594.8 1962.29,2595.16C1963.05,2595.56 1963.66,2596.11 1964.1,2596.87C1964.55,2597.64 1964.76,2598.58 1964.76,2599.74L1964.76,2606.8C1964.76,2607.04 1964.84,2607.22 1965,2607.35C1965.13,2607.51 1965.31,2607.59 1965.55,2607.59C1965.78,2607.59 1965.97,2607.51 1966.13,2607.35C1966.26,2607.22 1966.34,2607.04 1966.34,2606.8L1966.34,2599.74C1966.34,2598.29 1966.05,2597.06 1965.47,2596.06C1964.89,2595.09 1964.1,2594.33 1963.11,2593.8C1962.08,2593.3 1960.95,2593.04 1959.69,2593.04C1958.56,2593.04 1957.54,2593.27 1956.62,2593.77C1955.86,2594.19 1955.2,2594.72 1954.7,2595.43L1954.7,2594.01C1954.7,2593.77 1954.62,2593.56 1954.49,2593.43C1954.36,2593.3 1954.15,2593.22 1953.91,2593.22C1953.67,2593.22 1953.49,2593.3 1953.36,2593.43C1953.2,2593.56 1953.12,2593.77 1953.12,2594.01L1953.12,2606.8C1953.12,2607.04 1953.2,2607.22 1953.36,2607.35C1953.49,2607.51 1953.67,2607.59 1953.91,2607.59C1954.15,2607.59 1954.36,2607.51 1954.49,2607.35Z" style="fill:rgb(241,93,39);fill-rule:nonzero;stroke:rgb(239,99,34);stroke-width:0.24px;"/>
    </g>
    <g transform="matrix(4.16667,0,0,4.16667,-7221.21,-10334.4)">
        <path d="M1978.47,2607.25C1979.34,2606.93 1980.02,2606.46 1980.55,2605.86C1981.07,2605.25 1981.34,2604.52 1981.34,2603.7C1981.34,2603.07 1981.18,2602.47 1980.86,2601.92C1980.52,2601.37 1980,2600.89 1979.23,2600.47C1978.47,2600.05 1977.42,2599.76 1976.11,2599.58C1975.14,2599.45 1974.37,2599.24 1973.8,2599C1973.22,2598.76 1972.8,2598.47 1972.56,2598.13C1972.3,2597.79 1972.17,2597.4 1972.17,2596.95C1972.17,2596.3 1972.48,2595.72 1973.09,2595.24C1973.69,2594.77 1974.56,2594.53 1975.66,2594.53C1976.48,2594.53 1977.21,2594.67 1977.84,2594.95C1978.45,2595.24 1978.97,2595.69 1979.42,2596.24C1979.55,2596.43 1979.73,2596.53 1979.92,2596.56C1980.1,2596.58 1980.28,2596.56 1980.47,2596.48C1980.71,2596.35 1980.84,2596.19 1980.89,2595.98C1980.91,2595.8 1980.86,2595.61 1980.73,2595.43C1980.23,2594.72 1979.55,2594.14 1978.74,2593.69C1977.92,2593.27 1976.9,2593.06 1975.71,2593.06C1974.74,2593.06 1973.88,2593.22 1973.11,2593.51C1972.35,2593.83 1971.75,2594.27 1971.3,2594.88C1970.85,2595.48 1970.64,2596.24 1970.64,2597.11C1970.64,2598.03 1971.06,2598.84 1971.9,2599.55C1972.75,2600.26 1974.03,2600.73 1975.79,2600.97C1977.16,2601.16 1978.18,2601.47 1978.84,2601.92C1979.5,2602.36 1979.81,2602.94 1979.81,2603.62C1979.81,2604.33 1979.5,2604.94 1978.89,2605.46C1978.29,2605.99 1977.24,2606.25 1975.77,2606.25C1974.9,2606.25 1974.11,2606.12 1973.4,2605.88C1972.67,2605.65 1972.04,2605.25 1971.54,2604.65C1971.41,2604.49 1971.25,2604.39 1971.06,2604.36C1970.85,2604.33 1970.67,2604.36 1970.49,2604.49C1970.3,2604.62 1970.2,2604.81 1970.17,2604.99C1970.14,2605.2 1970.2,2605.38 1970.33,2605.57C1970.99,2606.36 1971.83,2606.91 1972.82,2607.25C1973.82,2607.59 1974.77,2607.75 1975.69,2607.75C1976.69,2607.75 1977.61,2607.59 1978.47,2607.25Z" style="fill:rgb(241,93,39);fill-rule:nonzero;stroke:rgb(239,99,34);stroke-width:0.24px;"/>
    </g>
    <g transform="matrix(4.16667,0,0,4.16667,-7221.21,-10334.4)">
        <path d="M1986.25,2613.5C1986.38,2613.37 1986.46,2613.18 1986.46,2612.95L1986.46,2604.75C1987.01,2605.67 1987.8,2606.38 1988.82,2606.93C1989.82,2607.49 1990.95,2607.75 1992.21,2607.75C1993.6,2607.75 1994.86,2607.43 1995.99,2606.78C1997.1,2606.15 1997.96,2605.28 1998.62,2604.15C1999.25,2603.05 1999.57,2601.81 1999.57,2600.42C1999.57,2599.03 1999.25,2597.77 1998.62,2596.64C1997.96,2595.53 1997.1,2594.67 1995.99,2594.01C1994.86,2593.38 1993.6,2593.06 1992.21,2593.06C1990.84,2593.06 1989.61,2593.38 1988.51,2594.01C1987.4,2594.64 1986.54,2595.48 1985.9,2596.56C1985.25,2597.64 1984.91,2598.87 1984.88,2600.26L1984.88,2612.95C1984.88,2613.18 1984.96,2613.37 1985.12,2613.5C1985.25,2613.66 1985.43,2613.74 1985.67,2613.74C1985.9,2613.74 1986.12,2613.66 1986.25,2613.5ZM1989.27,2605.49C1988.4,2604.99 1987.72,2604.28 1987.22,2603.39C1986.72,2602.52 1986.46,2601.52 1986.46,2600.42C1986.46,2599.29 1986.72,2598.29 1987.22,2597.4C1987.72,2596.53 1988.4,2595.82 1989.27,2595.3C1990.13,2594.8 1991.13,2594.53 1992.21,2594.53C1993.31,2594.53 1994.31,2594.8 1995.18,2595.3C1996.05,2595.82 1996.73,2596.53 1997.23,2597.4C1997.73,2598.29 1997.99,2599.29 1997.99,2600.42C1997.99,2601.52 1997.73,2602.52 1997.23,2603.39C1996.73,2604.28 1996.05,2604.99 1995.18,2605.49C1994.31,2606.01 1993.31,2606.28 1992.21,2606.28C1991.13,2606.28 1990.13,2606.01 1989.27,2605.49Z" style="fill:rgb(241,93,39);fill-rule:nonzero;stroke:rgb(239,99,34);stroke-width:0.24px;"/>
    </g>
    <g transform="matrix(4.16667,0,0,4.16667,-7221.21,-10334.4)">
        <path d="M2012.46,2607.22C2013.36,2606.88 2014.09,2606.46 2014.64,2605.96C2014.83,2605.8 2014.9,2605.62 2014.9,2605.44C2014.88,2605.25 2014.77,2605.07 2014.59,2604.91C2014.46,2604.78 2014.28,2604.73 2014.09,2604.73C2013.88,2604.75 2013.7,2604.83 2013.57,2604.96C2013.17,2605.36 2012.62,2605.65 2011.94,2605.88C2011.23,2606.12 2010.55,2606.25 2009.86,2606.25C2008.79,2606.25 2007.81,2605.99 2006.97,2605.49C2006.13,2604.99 2005.48,2604.31 2005,2603.44C2004.53,2602.57 2004.29,2601.55 2004.29,2600.42C2004.29,2599.26 2004.53,2598.24 2004.98,2597.37C2005.42,2596.51 2006.03,2595.8 2006.82,2595.3C2007.58,2594.8 2008.47,2594.56 2009.47,2594.56C2010.52,2594.56 2011.44,2594.8 2012.23,2595.3C2012.99,2595.8 2013.59,2596.51 2014.01,2597.37C2014.43,2598.24 2014.62,2599.26 2014.59,2600.39L2015.75,2599.53L2003.77,2599.53L2003.77,2600.89L2015.33,2600.89C2015.56,2600.89 2015.75,2600.81 2015.88,2600.68C2016.01,2600.55 2016.09,2600.39 2016.09,2600.16C2016.09,2598.76 2015.8,2597.56 2015.25,2596.48C2014.69,2595.43 2013.91,2594.59 2012.91,2593.98C2011.91,2593.38 2010.76,2593.09 2009.47,2593.09C2008.15,2593.09 2007,2593.41 2005.97,2594.04C2004.95,2594.67 2004.16,2595.53 2003.58,2596.61C2003.01,2597.71 2002.72,2598.97 2002.72,2600.42C2002.72,2601.84 2003.03,2603.1 2003.64,2604.2C2004.24,2605.3 2005.11,2606.17 2006.18,2606.78C2007.26,2607.41 2008.47,2607.72 2009.86,2607.72C2010.68,2607.72 2011.54,2607.56 2012.46,2607.22Z" style="fill:rgb(241,93,39);fill-rule:nonzero;stroke:rgb(239,99,34);stroke-width:0.24px;"/>
    </g>
    <g transform="matrix(4.16667,0,0,4.16667,-7221.21,-10334.4)">
        <path d="M2030.12,2605.99C2030.27,2605.86 2030.35,2605.67 2030.35,2605.46C2030.33,2605.28 2030.25,2605.1 2030.06,2604.94C2029.93,2604.81 2029.75,2604.73 2029.56,2604.75C2029.38,2604.78 2029.2,2604.86 2029.04,2604.99C2028.57,2605.44 2028.01,2605.75 2027.38,2605.96C2026.73,2606.17 2026.04,2606.28 2025.33,2606.28C2024.23,2606.28 2023.26,2606.01 2022.44,2605.49C2021.6,2604.99 2020.95,2604.28 2020.48,2603.39C2020,2602.52 2019.77,2601.52 2019.77,2600.42C2019.77,2599.29 2019.98,2598.26 2020.42,2597.4C2020.84,2596.53 2021.45,2595.82 2022.24,2595.32C2023,2594.82 2023.92,2594.56 2024.94,2594.56C2026.67,2594.56 2028.09,2595.22 2029.22,2596.56C2029.35,2596.74 2029.54,2596.82 2029.72,2596.85C2029.9,2596.87 2030.09,2596.85 2030.25,2596.72C2030.43,2596.58 2030.56,2596.43 2030.59,2596.24C2030.61,2596.06 2030.56,2595.88 2030.43,2595.69C2029.75,2594.82 2028.93,2594.17 2028.01,2593.72C2027.09,2593.3 2026.07,2593.09 2024.94,2593.09C2023.63,2593.09 2022.47,2593.41 2021.45,2594.04C2020.42,2594.69 2019.63,2595.56 2019.06,2596.66C2018.48,2597.77 2018.19,2599.03 2018.19,2600.42C2018.19,2601.81 2018.5,2603.05 2019.13,2604.15C2019.74,2605.25 2020.61,2606.12 2021.68,2606.78C2022.76,2607.43 2023.97,2607.75 2025.33,2607.75C2027.25,2607.75 2028.83,2607.17 2030.12,2605.99Z" style="fill:rgb(241,93,39);fill-rule:nonzero;stroke:rgb(239,99,34);stroke-width:0.24px;"/>
    </g>
    <g transform="matrix(4.16667,0,0,4.16667,-7221.21,-10334.4)">
        <path d="M2045.69,2605.99C2045.85,2605.86 2045.93,2605.67 2045.93,2605.46C2045.9,2605.28 2045.82,2605.1 2045.64,2604.94C2045.51,2604.81 2045.32,2604.73 2045.14,2604.75C2044.96,2604.78 2044.77,2604.86 2044.62,2604.99C2044.14,2605.44 2043.59,2605.75 2042.96,2605.96C2042.3,2606.17 2041.62,2606.28 2040.91,2606.28C2039.81,2606.28 2038.84,2606.01 2038.02,2605.49C2037.18,2604.99 2036.52,2604.28 2036.05,2603.39C2035.58,2602.52 2035.34,2601.52 2035.34,2600.42C2035.34,2599.29 2035.55,2598.26 2036,2597.4C2036.42,2596.53 2037.02,2595.82 2037.81,2595.32C2038.57,2594.82 2039.49,2594.56 2040.52,2594.56C2042.25,2594.56 2043.67,2595.22 2044.8,2596.56C2044.93,2596.74 2045.11,2596.82 2045.3,2596.85C2045.48,2596.87 2045.66,2596.85 2045.82,2596.72C2046.01,2596.58 2046.14,2596.43 2046.16,2596.24C2046.19,2596.06 2046.14,2595.88 2046.01,2595.69C2045.32,2594.82 2044.51,2594.17 2043.59,2593.72C2042.67,2593.3 2041.65,2593.09 2040.52,2593.09C2039.2,2593.09 2038.05,2593.41 2037.02,2594.04C2036,2594.69 2035.21,2595.56 2034.63,2596.66C2034.06,2597.77 2033.77,2599.03 2033.77,2600.42C2033.77,2601.81 2034.08,2603.05 2034.71,2604.15C2035.32,2605.25 2036.18,2606.12 2037.26,2606.78C2038.34,2607.43 2039.55,2607.75 2040.91,2607.75C2042.83,2607.75 2044.4,2607.17 2045.69,2605.99Z" style="fill:rgb(241,93,39);fill-rule:nonzero;stroke:rgb(239,99,34);stroke-width:0.24px;"/>
    </g>
    <g transform="matrix(4.16667,0,0,4.16667,-7221.21,-10334.4)">
        <path d="M2052.02,2607.35C2052.15,2607.22 2052.23,2607.04 2052.23,2606.8L2052.23,2594.01C2052.23,2593.77 2052.15,2593.56 2052.02,2593.43C2051.89,2593.3 2051.68,2593.22 2051.44,2593.22C2051.21,2593.22 2051.02,2593.3 2050.89,2593.43C2050.73,2593.56 2050.66,2593.77 2050.66,2594.01L2050.66,2606.8C2050.66,2607.04 2050.73,2607.22 2050.89,2607.35C2051.02,2607.51 2051.21,2607.59 2051.44,2607.59C2051.68,2607.59 2051.89,2607.51 2052.02,2607.35ZM2052.31,2589.83C2052.55,2589.6 2052.65,2589.31 2052.65,2588.97C2052.65,2588.57 2052.52,2588.26 2052.28,2588.05C2052.02,2587.86 2051.73,2587.76 2051.44,2587.76C2051.13,2587.76 2050.84,2587.86 2050.6,2588.05C2050.34,2588.26 2050.21,2588.57 2050.21,2588.97C2050.21,2589.31 2050.34,2589.6 2050.58,2589.83C2050.81,2590.07 2051.08,2590.2 2051.42,2590.2C2051.76,2590.2 2052.07,2590.07 2052.31,2589.83Z" style="fill:rgb(241,93,39);fill-rule:nonzero;stroke:rgb(239,99,34);stroke-width:0.24px;"/>
    </g>
    <g transform="matrix(4.16667,0,0,4.16667,-7221.21,-10334.4)">
        <path d="M2067.81,2606.78C2068.91,2606.15 2069.78,2605.28 2070.43,2604.15C2071.07,2603.05 2071.38,2601.81 2071.38,2600.42C2071.38,2599.03 2071.07,2597.77 2070.43,2596.64C2069.78,2595.53 2068.91,2594.67 2067.81,2594.01C2066.7,2593.38 2065.45,2593.06 2064.05,2593.06C2062.66,2593.06 2061.4,2593.38 2060.3,2594.01C2059.17,2594.67 2058.3,2595.53 2057.67,2596.64C2057.01,2597.77 2056.7,2599.03 2056.7,2600.42C2056.7,2601.81 2057.01,2603.05 2057.67,2604.15C2058.3,2605.28 2059.17,2606.15 2060.3,2606.78C2061.4,2607.43 2062.66,2607.75 2064.05,2607.75C2065.45,2607.75 2066.7,2607.43 2067.81,2606.78ZM2061.11,2605.49C2060.24,2604.99 2059.53,2604.28 2059.03,2603.39C2058.54,2602.52 2058.27,2601.52 2058.27,2600.42C2058.27,2599.29 2058.54,2598.29 2059.03,2597.4C2059.53,2596.53 2060.24,2595.82 2061.11,2595.3C2061.98,2594.8 2062.97,2594.53 2064.05,2594.53C2065.16,2594.53 2066.15,2594.8 2067.02,2595.3C2067.89,2595.82 2068.57,2596.53 2069.07,2597.4C2069.57,2598.29 2069.8,2599.29 2069.8,2600.39C2069.8,2601.52 2069.57,2602.52 2069.07,2603.39C2068.57,2604.28 2067.89,2604.99 2067.02,2605.49C2066.15,2606.01 2065.16,2606.28 2064.05,2606.28C2062.97,2606.28 2061.98,2606.01 2061.11,2605.49ZM2064.18,2590.88L2067.41,2587.65C2067.49,2587.57 2067.57,2587.47 2067.6,2587.36C2067.62,2587.28 2067.65,2587.18 2067.65,2587.1C2067.65,2586.87 2067.57,2586.66 2067.41,2586.5C2067.26,2586.37 2067.07,2586.29 2066.84,2586.29C2066.6,2586.29 2066.42,2586.37 2066.26,2586.52L2063.03,2589.75C2062.9,2589.91 2062.84,2590.1 2062.84,2590.28C2062.84,2590.52 2062.92,2590.7 2063.08,2590.86C2063.24,2591.01 2063.42,2591.09 2063.66,2591.09C2063.87,2591.09 2064.05,2591.01 2064.18,2590.88Z" style="fill:rgb(241,93,39);fill-rule:nonzero;stroke:rgb(239,99,34);stroke-width:0.24px;"/>
    </g>
    <g transform="matrix(4.16667,0,0,4.16667,-7221.21,-10334.4)">
        <path d="M2076.69,2607.35C2076.82,2607.22 2076.9,2607.04 2076.9,2606.8L2076.9,2598.76C2076.9,2597.98 2077.11,2597.27 2077.55,2596.64C2078,2596.01 2078.58,2595.51 2079.34,2595.14C2080.1,2594.8 2080.94,2594.61 2081.89,2594.61C2082.86,2594.61 2083.73,2594.8 2084.49,2595.16C2085.25,2595.56 2085.86,2596.11 2086.3,2596.87C2086.75,2597.64 2086.96,2598.58 2086.96,2599.74L2086.96,2606.8C2086.96,2607.04 2087.04,2607.22 2087.2,2607.35C2087.33,2607.51 2087.51,2607.59 2087.75,2607.59C2087.98,2607.59 2088.17,2607.51 2088.32,2607.35C2088.45,2607.22 2088.53,2607.04 2088.53,2606.8L2088.53,2599.74C2088.53,2598.29 2088.24,2597.06 2087.67,2596.06C2087.09,2595.09 2086.3,2594.33 2085.3,2593.8C2084.28,2593.3 2083.15,2593.04 2081.89,2593.04C2080.76,2593.04 2079.73,2593.27 2078.82,2593.77C2078.05,2594.19 2077.4,2594.72 2076.9,2595.43L2076.9,2594.01C2076.9,2593.77 2076.82,2593.56 2076.69,2593.43C2076.56,2593.3 2076.35,2593.22 2076.11,2593.22C2075.87,2593.22 2075.69,2593.3 2075.56,2593.43C2075.4,2593.56 2075.32,2593.77 2075.32,2594.01L2075.32,2606.8C2075.32,2607.04 2075.4,2607.22 2075.56,2607.35C2075.69,2607.51 2075.87,2607.59 2076.11,2607.59C2076.35,2607.59 2076.56,2607.51 2076.69,2607.35Z" style="fill:rgb(241,93,39);fill-rule:nonzero;stroke:rgb(239,99,34);stroke-width:0.24px;"/>
    </g>
    <g transform="matrix(4.16667,0,0,4.16667,-7221.21,-10334.4)">
        <path d="M2093.6,2611.27C2093.87,2611.03 2094.1,2610.69 2094.29,2610.27C2094.47,2609.85 2094.63,2609.4 2094.76,2608.9C2094.86,2608.43 2094.92,2607.96 2094.92,2607.49C2094.92,2606.78 2094.76,2606.25 2094.44,2605.86C2094.13,2605.49 2093.74,2605.3 2093.29,2605.3C2092.95,2605.3 2092.66,2605.41 2092.37,2605.62C2092.08,2605.86 2091.95,2606.17 2091.95,2606.59C2091.95,2606.88 2092,2607.12 2092.13,2607.3C2092.24,2607.49 2092.37,2607.67 2092.53,2607.85C2092.68,2608.04 2092.82,2608.22 2092.95,2608.43C2093.05,2608.67 2093.1,2608.93 2093.1,2609.27C2093.1,2609.56 2093.03,2609.82 2092.89,2610.03C2092.76,2610.27 2092.61,2610.45 2092.47,2610.64C2092.34,2610.82 2092.26,2611.03 2092.26,2611.22C2092.26,2611.35 2092.32,2611.45 2092.39,2611.53C2092.47,2611.61 2092.61,2611.66 2092.76,2611.66C2093.05,2611.66 2093.34,2611.53 2093.6,2611.27Z" style="fill:rgb(241,93,39);fill-rule:nonzero;stroke:rgb(239,99,34);stroke-width:0.24px;"/>
    </g>
    <g transform="matrix(4.16667,0,0,4.16667,-7221.21,-10334.4)">
        <path d="M2112.07,2607.07L2117.98,2594.22C2118.06,2594.04 2118.09,2593.83 2118.01,2593.64C2117.93,2593.46 2117.77,2593.33 2117.59,2593.25C2117.4,2593.17 2117.19,2593.14 2117.01,2593.22C2116.8,2593.3 2116.64,2593.43 2116.56,2593.62L2110.78,2606.36L2111.76,2606.36L2105.87,2593.64C2105.79,2593.46 2105.66,2593.33 2105.48,2593.25C2105.29,2593.17 2105.08,2593.2 2104.9,2593.27C2104.72,2593.35 2104.58,2593.48 2104.51,2593.67C2104.43,2593.85 2104.43,2594.06 2104.51,2594.25L2110.49,2607.07C2110.65,2607.43 2110.89,2607.62 2111.23,2607.62C2111.62,2607.62 2111.89,2607.43 2112.07,2607.07Z" style="fill:rgb(241,93,39);fill-rule:nonzero;stroke:rgb(239,99,34);stroke-width:0.24px;"/>
    </g>
    <g transform="matrix(4.16667,0,0,4.16667,-7221.21,-10334.4)">
        <path d="M2122.81,2607.35C2122.95,2607.22 2123.02,2607.04 2123.02,2606.8L2123.02,2594.01C2123.02,2593.77 2122.95,2593.56 2122.81,2593.43C2122.68,2593.3 2122.47,2593.22 2122.24,2593.22C2122,2593.22 2121.82,2593.3 2121.68,2593.43C2121.53,2593.56 2121.45,2593.77 2121.45,2594.01L2121.45,2606.8C2121.45,2607.04 2121.53,2607.22 2121.68,2607.35C2121.82,2607.51 2122,2607.59 2122.24,2607.59C2122.47,2607.59 2122.68,2607.51 2122.81,2607.35ZM2123.1,2589.83C2123.34,2589.6 2123.44,2589.31 2123.44,2588.97C2123.44,2588.57 2123.31,2588.26 2123.08,2588.05C2122.81,2587.86 2122.53,2587.76 2122.24,2587.76C2121.92,2587.76 2121.63,2587.86 2121.39,2588.05C2121.13,2588.26 2121,2588.57 2121,2588.97C2121,2589.31 2121.13,2589.6 2121.37,2589.83C2121.61,2590.07 2121.87,2590.2 2122.21,2590.2C2122.55,2590.2 2122.87,2590.07 2123.1,2589.83Z" style="fill:rgb(241,93,39);fill-rule:nonzero;stroke:rgb(239,99,34);stroke-width:0.24px;"/>
    </g>
    <g transform="matrix(4.16667,0,0,4.16667,-7221.21,-10334.4)">
        <path d="M2131.85,2605.51C2130.98,2605.02 2130.3,2604.33 2129.8,2603.44C2129.3,2602.57 2129.07,2601.55 2129.07,2600.42C2129.07,2599.26 2129.3,2598.24 2129.8,2597.35C2130.3,2596.48 2130.98,2595.77 2131.85,2595.27C2132.72,2594.77 2133.72,2594.53 2134.84,2594.53C2135.97,2594.53 2136.97,2594.77 2137.84,2595.27C2138.71,2595.77 2139.36,2596.48 2139.86,2597.35C2140.36,2598.24 2140.6,2599.26 2140.6,2600.42C2140.6,2601.55 2140.36,2602.57 2139.86,2603.44C2139.36,2604.33 2138.71,2605.02 2137.84,2605.51C2136.97,2606.01 2135.97,2606.28 2134.84,2606.28C2133.72,2606.28 2132.72,2606.01 2131.85,2605.51ZM2138.65,2612.08C2139.73,2611.43 2140.6,2610.53 2141.23,2609.4C2141.86,2608.27 2142.17,2606.99 2142.17,2605.57L2142.17,2600.42C2142.17,2598.97 2141.86,2597.71 2141.23,2596.61C2140.6,2595.51 2139.73,2594.64 2138.65,2594.01C2137.55,2593.38 2136.29,2593.06 2134.84,2593.06C2133.45,2593.06 2132.22,2593.38 2131.11,2594.01C2129.99,2594.64 2129.12,2595.51 2128.46,2596.61C2127.8,2597.71 2127.49,2598.97 2127.49,2600.42C2127.49,2601.84 2127.8,2603.1 2128.43,2604.2C2129.07,2605.3 2129.93,2606.17 2131.03,2606.8C2132.14,2607.43 2133.4,2607.75 2134.84,2607.75C2136.11,2607.75 2137.21,2607.49 2138.18,2606.93C2139.15,2606.41 2139.89,2605.67 2140.44,2604.73C2140.52,2604.6 2140.57,2604.49 2140.6,2604.33L2140.6,2605.57C2140.6,2606.7 2140.36,2607.72 2139.86,2608.64C2139.36,2609.56 2138.71,2610.3 2137.87,2610.82C2137,2611.35 2136.03,2611.61 2134.95,2611.61C2133.82,2611.61 2132.82,2611.4 2131.98,2610.95C2131.14,2610.53 2130.46,2610.01 2129.91,2609.35C2129.78,2609.17 2129.62,2609.03 2129.38,2609.01C2129.14,2608.98 2128.93,2609.01 2128.75,2609.14C2128.57,2609.27 2128.49,2609.45 2128.49,2609.64C2128.49,2609.82 2128.57,2610.01 2128.7,2610.19C2129.35,2611.03 2130.22,2611.71 2131.25,2612.27C2132.27,2612.82 2133.51,2613.08 2134.95,2613.08C2136.34,2613.08 2137.58,2612.74 2138.65,2612.08Z" style="fill:rgb(241,93,39);fill-rule:nonzero;stroke:rgb(239,99,34);stroke-width:0.24px;"/>
    </g>
    <g transform="matrix(4.16667,0,0,4.16667,-7221.21,-10334.4)">
        <path d="M2148,2607.35C2148.14,2607.22 2148.21,2607.04 2148.21,2606.8L2148.21,2594.01C2148.21,2593.77 2148.14,2593.56 2148,2593.43C2147.87,2593.3 2147.66,2593.22 2147.43,2593.22C2147.19,2593.22 2147.01,2593.3 2146.88,2593.43C2146.72,2593.56 2146.64,2593.77 2146.64,2594.01L2146.64,2606.8C2146.64,2607.04 2146.72,2607.22 2146.88,2607.35C2147.01,2607.51 2147.19,2607.59 2147.43,2607.59C2147.66,2607.59 2147.87,2607.51 2148,2607.35ZM2148.29,2589.83C2148.53,2589.6 2148.63,2589.31 2148.63,2588.97C2148.63,2588.57 2148.5,2588.26 2148.27,2588.05C2148,2587.86 2147.72,2587.76 2147.43,2587.76C2147.11,2587.76 2146.82,2587.86 2146.59,2588.05C2146.32,2588.26 2146.19,2588.57 2146.19,2588.97C2146.19,2589.31 2146.32,2589.6 2146.56,2589.83C2146.8,2590.07 2147.06,2590.2 2147.4,2590.2C2147.74,2590.2 2148.06,2590.07 2148.29,2589.83Z" style="fill:rgb(241,93,39);fill-rule:nonzero;stroke:rgb(239,99,34);stroke-width:0.24px;"/>
    </g>
    <g transform="matrix(4.16667,0,0,4.16667,-7221.21,-10334.4)">
        <path d="M2156.88,2607.59C2157.12,2607.59 2157.33,2607.51 2157.46,2607.35C2157.59,2607.22 2157.67,2607.04 2157.67,2606.8C2157.67,2606.57 2157.62,2606.36 2157.49,2606.22C2157.36,2606.09 2157.2,2606.01 2157.01,2606.01L2156.36,2606.01C2155.81,2606.01 2155.39,2605.75 2155.04,2605.23C2154.7,2604.73 2154.52,2604.07 2154.52,2603.26L2154.52,2587.86C2154.52,2587.63 2154.44,2587.42 2154.31,2587.28C2154.18,2587.15 2153.97,2587.08 2153.73,2587.08C2153.49,2587.08 2153.31,2587.15 2153.18,2587.28C2153.02,2587.42 2152.94,2587.63 2152.94,2587.86L2152.94,2603.26C2152.94,2604.12 2153.1,2604.86 2153.39,2605.51C2153.68,2606.17 2154.07,2606.67 2154.6,2607.04C2155.1,2607.41 2155.7,2607.59 2156.36,2607.59L2156.88,2607.59Z" style="fill:rgb(241,93,39);fill-rule:nonzero;stroke:rgb(239,99,34);stroke-width:0.24px;"/>
    </g>
    <g transform="matrix(4.16667,0,0,4.16667,-7221.21,-10334.4)">
        <path d="M2163.4,2605.49C2162.53,2604.99 2161.82,2604.28 2161.32,2603.39C2160.82,2602.52 2160.56,2601.52 2160.56,2600.42C2160.56,2599.29 2160.82,2598.29 2161.32,2597.4C2161.82,2596.53 2162.53,2595.82 2163.4,2595.3C2164.26,2594.8 2165.26,2594.53 2166.34,2594.53C2167.44,2594.53 2168.44,2594.8 2169.31,2595.3C2170.17,2595.82 2170.86,2596.53 2171.36,2597.4C2171.86,2598.29 2172.09,2599.29 2172.09,2600.42C2172.09,2601.52 2171.86,2602.52 2171.36,2603.39C2170.86,2604.28 2170.17,2604.99 2169.31,2605.49C2168.44,2606.01 2167.44,2606.28 2166.34,2606.28C2165.26,2606.28 2164.26,2606.01 2163.4,2605.49ZM2173.46,2607.35C2173.59,2607.22 2173.67,2607.04 2173.67,2606.8L2173.67,2600.42C2173.67,2599.03 2173.35,2597.77 2172.72,2596.64C2172.07,2595.53 2171.2,2594.67 2170.1,2594.01C2168.99,2593.38 2167.73,2593.06 2166.34,2593.06C2164.95,2593.06 2163.69,2593.38 2162.58,2594.01C2161.45,2594.67 2160.59,2595.53 2159.96,2596.64C2159.3,2597.77 2158.98,2599.03 2158.98,2600.42C2158.98,2601.81 2159.3,2603.05 2159.96,2604.15C2160.59,2605.28 2161.45,2606.15 2162.58,2606.78C2163.69,2607.43 2164.95,2607.75 2166.34,2607.75C2167.63,2607.75 2168.76,2607.46 2169.75,2606.91C2170.73,2606.38 2171.49,2605.65 2172.09,2604.73L2172.09,2606.8C2172.09,2607.04 2172.17,2607.22 2172.33,2607.35C2172.46,2607.51 2172.67,2607.59 2172.91,2607.59C2173.14,2607.59 2173.33,2607.51 2173.46,2607.35Z" style="fill:rgb(241,93,39);fill-rule:nonzero;stroke:rgb(239,99,34);stroke-width:0.24px;"/>
    </g>
    <g transform="matrix(4.16667,0,0,4.16667,-7221.21,-10334.4)">
        <path d="M2178.97,2607.35C2179.11,2607.22 2179.18,2607.04 2179.18,2606.8L2179.18,2598.76C2179.18,2597.98 2179.39,2597.27 2179.84,2596.64C2180.29,2596.01 2180.87,2595.51 2181.63,2595.14C2182.39,2594.8 2183.23,2594.61 2184.18,2594.61C2185.15,2594.61 2186.01,2594.8 2186.78,2595.16C2187.54,2595.56 2188.14,2596.11 2188.59,2596.87C2189.03,2597.64 2189.24,2598.58 2189.24,2599.74L2189.24,2606.8C2189.24,2607.04 2189.32,2607.22 2189.48,2607.35C2189.61,2607.51 2189.8,2607.59 2190.03,2607.59C2190.27,2607.59 2190.45,2607.51 2190.61,2607.35C2190.74,2607.22 2190.82,2607.04 2190.82,2606.8L2190.82,2599.74C2190.82,2598.29 2190.53,2597.06 2189.95,2596.06C2189.38,2595.09 2188.59,2594.33 2187.59,2593.8C2186.57,2593.3 2185.44,2593.04 2184.18,2593.04C2183.05,2593.04 2182.02,2593.27 2181.1,2593.77C2180.34,2594.19 2179.68,2594.72 2179.18,2595.43L2179.18,2594.01C2179.18,2593.77 2179.11,2593.56 2178.97,2593.43C2178.84,2593.3 2178.63,2593.22 2178.4,2593.22C2178.16,2593.22 2177.97,2593.3 2177.84,2593.43C2177.69,2593.56 2177.61,2593.77 2177.61,2594.01L2177.61,2606.8C2177.61,2607.04 2177.69,2607.22 2177.84,2607.35C2177.97,2607.51 2178.16,2607.59 2178.4,2607.59C2178.63,2607.59 2178.84,2607.51 2178.97,2607.35Z" style="fill:rgb(241,93,39);fill-rule:nonzero;stroke:rgb(239,99,34);stroke-width:0.24px;"/>
    </g>
    <g transform="matrix(4.16667,0,0,4.16667,-7221.21,-10334.4)">
        <path d="M2206.42,2605.99C2206.58,2605.86 2206.66,2605.67 2206.66,2605.46C2206.63,2605.28 2206.55,2605.1 2206.37,2604.94C2206.24,2604.81 2206.06,2604.73 2205.87,2604.75C2205.69,2604.78 2205.5,2604.86 2205.35,2604.99C2204.87,2605.44 2204.32,2605.75 2203.69,2605.96C2203.03,2606.17 2202.35,2606.28 2201.64,2606.28C2200.54,2606.28 2199.57,2606.01 2198.75,2605.49C2197.91,2604.99 2197.26,2604.28 2196.78,2603.39C2196.31,2602.52 2196.07,2601.52 2196.07,2600.42C2196.07,2599.29 2196.28,2598.26 2196.73,2597.4C2197.15,2596.53 2197.76,2595.82 2198.54,2595.32C2199.3,2594.82 2200.22,2594.56 2201.25,2594.56C2202.98,2594.56 2204.4,2595.22 2205.53,2596.56C2205.66,2596.74 2205.85,2596.82 2206.03,2596.85C2206.21,2596.87 2206.4,2596.85 2206.55,2596.72C2206.74,2596.58 2206.87,2596.43 2206.9,2596.24C2206.92,2596.06 2206.87,2595.88 2206.74,2595.69C2206.06,2594.82 2205.24,2594.17 2204.32,2593.72C2203.4,2593.3 2202.38,2593.09 2201.25,2593.09C2199.93,2593.09 2198.78,2593.41 2197.76,2594.04C2196.73,2594.69 2195.94,2595.56 2195.37,2596.66C2194.79,2597.77 2194.5,2599.03 2194.5,2600.42C2194.5,2601.81 2194.81,2603.05 2195.44,2604.15C2196.05,2605.25 2196.91,2606.12 2197.99,2606.78C2199.07,2607.43 2200.28,2607.75 2201.64,2607.75C2203.56,2607.75 2205.14,2607.17 2206.42,2605.99Z" style="fill:rgb(241,93,39);fill-rule:nonzero;stroke:rgb(239,99,34);stroke-width:0.24px;"/>
    </g>
    <g transform="matrix(4.16667,0,0,4.16667,-7221.21,-10334.4)">
        <path d="M2212.75,2607.35C2212.89,2607.22 2212.96,2607.04 2212.96,2606.8L2212.96,2594.01C2212.96,2593.77 2212.89,2593.56 2212.75,2593.43C2212.62,2593.3 2212.41,2593.22 2212.18,2593.22C2211.94,2593.22 2211.76,2593.3 2211.62,2593.43C2211.47,2593.56 2211.39,2593.77 2211.39,2594.01L2211.39,2606.8C2211.39,2607.04 2211.47,2607.22 2211.62,2607.35C2211.76,2607.51 2211.94,2607.59 2212.18,2607.59C2212.41,2607.59 2212.62,2607.51 2212.75,2607.35ZM2213.04,2589.83C2213.28,2589.6 2213.38,2589.31 2213.38,2588.97C2213.38,2588.57 2213.25,2588.26 2213.02,2588.05C2212.75,2587.86 2212.47,2587.76 2212.18,2587.76C2211.86,2587.76 2211.57,2587.86 2211.34,2588.05C2211.07,2588.26 2210.94,2588.57 2210.94,2588.97C2210.94,2589.31 2211.07,2589.6 2211.31,2589.83C2211.55,2590.07 2211.81,2590.2 2212.15,2590.2C2212.49,2590.2 2212.81,2590.07 2213.04,2589.83Z" style="fill:rgb(241,93,39);fill-rule:nonzero;stroke:rgb(239,99,34);stroke-width:0.24px;"/>
    </g>
    <g transform="matrix(4.16667,0,0,4.16667,-7221.21,-10334.4)">
        <path d="M2221.84,2605.49C2220.98,2604.99 2220.27,2604.28 2219.77,2603.39C2219.27,2602.52 2219.01,2601.52 2219.01,2600.42C2219.01,2599.29 2219.27,2598.29 2219.77,2597.4C2220.27,2596.53 2220.98,2595.82 2221.84,2595.3C2222.71,2594.8 2223.71,2594.53 2224.78,2594.53C2225.89,2594.53 2226.89,2594.8 2227.75,2595.3C2228.62,2595.82 2229.3,2596.53 2229.8,2597.4C2230.3,2598.29 2230.54,2599.29 2230.54,2600.42C2230.54,2601.52 2230.3,2602.52 2229.8,2603.39C2229.3,2604.28 2228.62,2604.99 2227.75,2605.49C2226.89,2606.01 2225.89,2606.28 2224.78,2606.28C2223.71,2606.28 2222.71,2606.01 2221.84,2605.49ZM2231.9,2607.35C2232.03,2607.22 2232.11,2607.04 2232.11,2606.8L2232.11,2600.42C2232.11,2599.03 2231.8,2597.77 2231.17,2596.64C2230.51,2595.53 2229.64,2594.67 2228.54,2594.01C2227.44,2593.38 2226.18,2593.06 2224.78,2593.06C2223.39,2593.06 2222.13,2593.38 2221.03,2594.01C2219.9,2594.67 2219.03,2595.53 2218.4,2596.64C2217.74,2597.77 2217.43,2599.03 2217.43,2600.42C2217.43,2601.81 2217.74,2603.05 2218.4,2604.15C2219.03,2605.28 2219.9,2606.15 2221.03,2606.78C2222.13,2607.43 2223.39,2607.75 2224.78,2607.75C2226.07,2607.75 2227.2,2607.46 2228.2,2606.91C2229.17,2606.38 2229.93,2605.65 2230.54,2604.73L2230.54,2606.8C2230.54,2607.04 2230.62,2607.22 2230.77,2607.35C2230.91,2607.51 2231.12,2607.59 2231.35,2607.59C2231.59,2607.59 2231.77,2607.51 2231.9,2607.35Z" style="fill:rgb(241,93,39);fill-rule:nonzero;stroke:rgb(239,99,34);stroke-width:0.24px;"/>
    </g>
    <g transform="matrix(4.16667,0,0,4.16667,-7221.21,-10334.4)">
        <path d="M2246.74,2613.34L2255.57,2594.22C2255.78,2593.77 2255.65,2593.43 2255.18,2593.25C2254.73,2593.06 2254.41,2593.2 2254.2,2593.64L2248.85,2605.28L2243.51,2593.62C2243.41,2593.38 2243.28,2593.25 2243.09,2593.2C2242.91,2593.14 2242.72,2593.17 2242.49,2593.27C2242.25,2593.38 2242.12,2593.51 2242.07,2593.69C2242.02,2593.88 2242.04,2594.06 2242.15,2594.3L2247.9,2606.91L2248.01,2607.07L2245.38,2612.76C2245.17,2613.21 2245.3,2613.55 2245.77,2613.74C2245.9,2613.79 2246.03,2613.82 2246.14,2613.82C2246.38,2613.82 2246.59,2613.66 2246.74,2613.34Z" style="fill:rgb(241,93,39);fill-rule:nonzero;stroke:rgb(239,99,34);stroke-width:0.24px;"/>
    </g>
    <g transform="matrix(4.16667,0,0,4.16667,-7221.21,-10334.4)">
        <path d="M2277.14,2605.99C2277.29,2605.86 2277.37,2605.67 2277.37,2605.46C2277.35,2605.28 2277.27,2605.1 2277.08,2604.94C2276.95,2604.81 2276.77,2604.73 2276.59,2604.75C2276.4,2604.78 2276.22,2604.86 2276.06,2604.99C2275.59,2605.44 2275.03,2605.75 2274.4,2605.96C2273.75,2606.17 2273.07,2606.28 2272.36,2606.28C2271.25,2606.28 2270.28,2606.01 2269.47,2605.49C2268.62,2604.99 2267.97,2604.28 2267.5,2603.39C2267.02,2602.52 2266.79,2601.52 2266.79,2600.42C2266.79,2599.29 2267,2598.26 2267.44,2597.4C2267.86,2596.53 2268.47,2595.82 2269.26,2595.32C2270.02,2594.82 2270.94,2594.56 2271.96,2594.56C2273.7,2594.56 2275.11,2595.22 2276.24,2596.56C2276.37,2596.74 2276.56,2596.82 2276.74,2596.85C2276.93,2596.87 2277.11,2596.85 2277.27,2596.72C2277.45,2596.58 2277.58,2596.43 2277.61,2596.24C2277.64,2596.06 2277.58,2595.88 2277.45,2595.69C2276.77,2594.82 2275.95,2594.17 2275.03,2593.72C2274.12,2593.3 2273.09,2593.09 2271.96,2593.09C2270.65,2593.09 2269.49,2593.41 2268.47,2594.04C2267.44,2594.69 2266.66,2595.56 2266.08,2596.66C2265.5,2597.77 2265.21,2599.03 2265.21,2600.42C2265.21,2601.81 2265.53,2603.05 2266.16,2604.15C2266.76,2605.25 2267.63,2606.12 2268.7,2606.78C2269.78,2607.43 2270.99,2607.75 2272.36,2607.75C2274.27,2607.75 2275.85,2607.17 2277.14,2605.99Z" style="fill:rgb(241,93,39);fill-rule:nonzero;stroke:rgb(239,99,34);stroke-width:0.24px;"/>
    </g>
    <g transform="matrix(4.16667,0,0,4.16667,-7221.21,-10334.4)">
        <path d="M2291.9,2606.78C2293,2606.15 2293.87,2605.28 2294.53,2604.15C2295.16,2603.05 2295.47,2601.81 2295.47,2600.42C2295.47,2599.03 2295.16,2597.77 2294.53,2596.64C2293.87,2595.53 2293,2594.67 2291.9,2594.01C2290.8,2593.38 2289.53,2593.06 2288.14,2593.06C2286.75,2593.06 2285.49,2593.38 2284.39,2594.01C2283.26,2594.67 2282.39,2595.53 2281.76,2596.64C2281.1,2597.77 2280.79,2599.03 2280.79,2600.42C2280.79,2601.81 2281.1,2603.05 2281.76,2604.15C2282.39,2605.28 2283.26,2606.15 2284.39,2606.78C2285.49,2607.43 2286.75,2607.75 2288.14,2607.75C2289.53,2607.75 2290.8,2607.43 2291.9,2606.78ZM2285.2,2605.49C2284.33,2604.99 2283.62,2604.28 2283.12,2603.39C2282.63,2602.52 2282.36,2601.52 2282.36,2600.42C2282.36,2599.29 2282.63,2598.29 2283.12,2597.4C2283.62,2596.53 2284.33,2595.82 2285.2,2595.3C2286.07,2594.8 2287.07,2594.53 2288.14,2594.53C2289.25,2594.53 2290.24,2594.8 2291.11,2595.3C2291.98,2595.82 2292.66,2596.53 2293.16,2597.4C2293.66,2598.29 2293.89,2599.29 2293.89,2600.39C2293.89,2601.52 2293.66,2602.52 2293.16,2603.39C2292.66,2604.28 2291.98,2604.99 2291.11,2605.49C2290.24,2606.01 2289.25,2606.28 2288.14,2606.28C2287.07,2606.28 2286.07,2606.01 2285.2,2605.49Z" style="fill:rgb(241,93,39);fill-rule:nonzero;stroke:rgb(239,99,34);stroke-width:0.24px;"/>
    </g>
    <g transform="matrix(4.16667,0,0,4.16667,-7221.21,-10334.4)">
        <path d="M2300.78,2607.35C2300.91,2607.22 2300.99,2607.04 2300.99,2606.8L2300.99,2598.76C2300.99,2597.98 2301.2,2597.27 2301.64,2596.64C2302.09,2596.01 2302.67,2595.51 2303.43,2595.14C2304.19,2594.8 2305.03,2594.61 2305.98,2594.61C2306.95,2594.61 2307.82,2594.8 2308.58,2595.16C2309.34,2595.56 2309.94,2596.11 2310.39,2596.87C2310.84,2597.64 2311.05,2598.58 2311.05,2599.74L2311.05,2606.8C2311.05,2607.04 2311.13,2607.22 2311.28,2607.35C2311.41,2607.51 2311.6,2607.59 2311.84,2607.59C2312.07,2607.59 2312.26,2607.51 2312.41,2607.35C2312.55,2607.22 2312.62,2607.04 2312.62,2606.8L2312.62,2599.74C2312.62,2598.29 2312.34,2597.06 2311.76,2596.06C2311.18,2595.09 2310.39,2594.33 2309.39,2593.8C2308.37,2593.3 2307.24,2593.04 2305.98,2593.04C2304.85,2593.04 2303.82,2593.27 2302.9,2593.77C2302.14,2594.19 2301.49,2594.72 2300.99,2595.43L2300.99,2594.01C2300.99,2593.77 2300.91,2593.56 2300.78,2593.43C2300.64,2593.3 2300.43,2593.22 2300.2,2593.22C2299.96,2593.22 2299.78,2593.3 2299.65,2593.43C2299.49,2593.56 2299.41,2593.77 2299.41,2594.01L2299.41,2606.8C2299.41,2607.04 2299.49,2607.22 2299.65,2607.35C2299.78,2607.51 2299.96,2607.59 2300.2,2607.59C2300.43,2607.59 2300.64,2607.51 2300.78,2607.35Z" style="fill:rgb(241,93,39);fill-rule:nonzero;stroke:rgb(239,99,34);stroke-width:0.24px;"/>
    </g>
    <g transform="matrix(4.16667,0,0,4.16667,-7221.21,-10334.4)">
        <path d="M2323.08,2595.16C2323.29,2595.16 2323.47,2595.09 2323.6,2594.95C2323.74,2594.82 2323.79,2594.67 2323.79,2594.46C2323.79,2594.25 2323.74,2594.06 2323.6,2593.93C2323.47,2593.8 2323.29,2593.75 2323.08,2593.75L2319.61,2593.75L2319.61,2589.47C2319.61,2589.23 2319.53,2589.02 2319.4,2588.86C2319.24,2588.73 2319.03,2588.65 2318.8,2588.65C2318.56,2588.65 2318.38,2588.73 2318.24,2588.86C2318.09,2589.02 2318.01,2589.23 2318.01,2589.47L2318.01,2593.75L2315.96,2593.75C2315.75,2593.75 2315.59,2593.8 2315.46,2593.93C2315.33,2594.06 2315.25,2594.25 2315.25,2594.46C2315.25,2594.67 2315.33,2594.82 2315.46,2594.95C2315.59,2595.09 2315.75,2595.16 2315.96,2595.16L2318.01,2595.16L2318.01,2602.55C2318.01,2603.52 2318.22,2604.36 2318.64,2605.12C2319.06,2605.88 2319.64,2606.49 2320.4,2606.91C2321.16,2607.35 2322,2607.56 2322.97,2607.59L2323.58,2607.59C2323.81,2607.59 2324.02,2607.51 2324.18,2607.35C2324.31,2607.22 2324.39,2607.04 2324.39,2606.8C2324.39,2606.57 2324.31,2606.36 2324.18,2606.2C2324.02,2606.07 2323.81,2605.99 2323.58,2605.99L2323,2605.99C2322,2605.99 2321.19,2605.67 2320.56,2605.02C2319.93,2604.39 2319.61,2603.57 2319.61,2602.55L2319.61,2595.16L2323.08,2595.16Z" style="fill:rgb(241,93,39);fill-rule:nonzero;stroke:rgb(239,99,34);stroke-width:0.24px;"/>
    </g>
    <g transform="matrix(4.16667,0,0,4.16667,-7221.21,-10334.4)">
        <path d="M2329.04,2607.35C2329.17,2607.22 2329.25,2607.04 2329.25,2606.8L2329.25,2598.82C2329.25,2598 2329.43,2597.27 2329.83,2596.61C2330.22,2595.98 2330.75,2595.48 2331.43,2595.11C2332.11,2594.74 2332.9,2594.56 2333.77,2594.56C2334.11,2594.56 2334.4,2594.59 2334.69,2594.61C2334.95,2594.67 2335.19,2594.67 2335.37,2594.61C2335.55,2594.56 2335.69,2594.4 2335.74,2594.14C2335.82,2593.75 2335.69,2593.46 2335.32,2593.3C2334.95,2593.14 2334.43,2593.06 2333.77,2593.06C2332.8,2593.06 2331.9,2593.3 2331.09,2593.8C2330.33,2594.27 2329.72,2594.85 2329.25,2595.64L2329.25,2594.01C2329.25,2593.77 2329.17,2593.56 2329.04,2593.43C2328.91,2593.3 2328.7,2593.22 2328.46,2593.22C2328.23,2593.22 2328.04,2593.3 2327.91,2593.43C2327.75,2593.56 2327.68,2593.77 2327.68,2594.01L2327.68,2606.8C2327.68,2607.04 2327.75,2607.22 2327.91,2607.35C2328.04,2607.51 2328.23,2607.59 2328.46,2607.59C2328.7,2607.59 2328.91,2607.51 2329.04,2607.35Z" style="fill:rgb(241,93,39);fill-rule:nonzero;stroke:rgb(239,99,34);stroke-width:0.24px;"/>
    </g>
    <g transform="matrix(4.16667,0,0,4.16667,-7221.21,-10334.4)">
        <path d="M2348.45,2606.78C2349.56,2606.15 2350.42,2605.28 2351.08,2604.15C2351.71,2603.05 2352.03,2601.81 2352.03,2600.42C2352.03,2599.03 2351.71,2597.77 2351.08,2596.64C2350.42,2595.53 2349.56,2594.67 2348.45,2594.01C2347.35,2593.38 2346.09,2593.06 2344.7,2593.06C2343.3,2593.06 2342.04,2593.38 2340.94,2594.01C2339.81,2594.67 2338.94,2595.53 2338.31,2596.64C2337.66,2597.77 2337.34,2599.03 2337.34,2600.42C2337.34,2601.81 2337.66,2603.05 2338.31,2604.15C2338.94,2605.28 2339.81,2606.15 2340.94,2606.78C2342.04,2607.43 2343.3,2607.75 2344.7,2607.75C2346.09,2607.75 2347.35,2607.43 2348.45,2606.78ZM2341.75,2605.49C2340.89,2604.99 2340.18,2604.28 2339.68,2603.39C2339.18,2602.52 2338.92,2601.52 2338.92,2600.42C2338.92,2599.29 2339.18,2598.29 2339.68,2597.4C2340.18,2596.53 2340.89,2595.82 2341.75,2595.3C2342.62,2594.8 2343.62,2594.53 2344.7,2594.53C2345.8,2594.53 2346.8,2594.8 2347.66,2595.3C2348.53,2595.82 2349.22,2596.53 2349.71,2597.4C2350.21,2598.29 2350.45,2599.29 2350.45,2600.39C2350.45,2601.52 2350.21,2602.52 2349.71,2603.39C2349.22,2604.28 2348.53,2604.99 2347.66,2605.49C2346.8,2606.01 2345.8,2606.28 2344.7,2606.28C2343.62,2606.28 2342.62,2606.01 2341.75,2605.49Z" style="fill:rgb(241,93,39);fill-rule:nonzero;stroke:rgb(239,99,34);stroke-width:0.24px;"/>
    </g>
    <g transform="matrix(4.16667,0,0,4.16667,-7221.21,-10334.4)">
        <path d="M2359.38,2607.59C2359.62,2607.59 2359.83,2607.51 2359.96,2607.35C2360.09,2607.22 2360.17,2607.04 2360.17,2606.8C2360.17,2606.57 2360.12,2606.36 2359.98,2606.22C2359.85,2606.09 2359.7,2606.01 2359.51,2606.01L2358.85,2606.01C2358.3,2606.01 2357.88,2605.75 2357.54,2605.23C2357.2,2604.73 2357.02,2604.07 2357.02,2603.26L2357.02,2587.86C2357.02,2587.63 2356.94,2587.42 2356.81,2587.28C2356.67,2587.15 2356.46,2587.08 2356.23,2587.08C2355.99,2587.08 2355.81,2587.15 2355.68,2587.28C2355.52,2587.42 2355.44,2587.63 2355.44,2587.86L2355.44,2603.26C2355.44,2604.12 2355.6,2604.86 2355.89,2605.51C2356.18,2606.17 2356.57,2606.67 2357.1,2607.04C2357.59,2607.41 2358.2,2607.59 2358.85,2607.59L2359.38,2607.59Z" style="fill:rgb(241,93,39);fill-rule:nonzero;stroke:rgb(239,99,34);stroke-width:0.24px;"/>
    </g>
    <g transform="matrix(4.16667,0,0,4.16667,-7221.21,-10334.4)">
        <path d="M1952.21,2644.73C1951.01,2644.04 1950.03,2643.06 1949.34,2641.83C1948.65,2640.63 1948.29,2639.25 1948.29,2637.72C1948.29,2636.16 1948.65,2634.78 1949.34,2633.54C1950.03,2632.35 1951.01,2631.36 1952.21,2630.64C1953.41,2629.95 1954.79,2629.58 1956.28,2629.58C1957.81,2629.58 1959.19,2629.95 1960.39,2630.64C1961.59,2631.36 1962.53,2632.35 1963.22,2633.54C1963.91,2634.78 1964.24,2636.16 1964.24,2637.72C1964.24,2639.25 1963.91,2640.63 1963.22,2641.83C1962.53,2643.06 1961.59,2644.04 1960.39,2644.73C1959.19,2645.46 1957.81,2645.82 1956.28,2645.82C1954.79,2645.82 1953.41,2645.46 1952.21,2644.73ZM1966.13,2647.31C1966.31,2647.13 1966.42,2646.88 1966.42,2646.55L1966.42,2637.72C1966.42,2635.8 1965.98,2634.05 1965.11,2632.49C1964.2,2630.97 1963,2629.77 1961.48,2628.86C1959.95,2627.99 1958.21,2627.55 1956.28,2627.55C1954.36,2627.55 1952.61,2627.99 1951.09,2628.86C1949.52,2629.77 1948.33,2630.97 1947.45,2632.49C1946.55,2634.05 1946.11,2635.8 1946.11,2637.72C1946.11,2639.65 1946.55,2641.36 1947.45,2642.88C1948.33,2644.44 1949.52,2645.64 1951.09,2646.51C1952.61,2647.42 1954.36,2647.86 1956.28,2647.86C1958.06,2647.86 1959.62,2647.46 1961.01,2646.7C1962.35,2645.97 1963.4,2644.95 1964.24,2643.68L1964.24,2646.55C1964.24,2646.88 1964.35,2647.13 1964.57,2647.31C1964.75,2647.53 1965.04,2647.64 1965.37,2647.64C1965.69,2647.64 1965.95,2647.53 1966.13,2647.31Z" style="fill:rgb(241,93,39);fill-rule:nonzero;stroke:rgb(239,99,34);stroke-width:0.24px;"/>
    </g>
    <g transform="matrix(4.16667,0,0,4.16667,-7221.21,-10334.4)">
        <path d="M1976.59,2647.64C1976.92,2647.64 1977.21,2647.53 1977.39,2647.31C1977.57,2647.13 1977.68,2646.88 1977.68,2646.55C1977.68,2646.22 1977.61,2645.93 1977.43,2645.75C1977.24,2645.57 1977.03,2645.46 1976.77,2645.46L1975.86,2645.46C1975.1,2645.46 1974.52,2645.1 1974.05,2644.37C1973.58,2643.68 1973.32,2642.77 1973.32,2641.65L1973.32,2620.36C1973.32,2620.03 1973.21,2619.74 1973.03,2619.56C1972.85,2619.38 1972.56,2619.27 1972.23,2619.27C1971.9,2619.27 1971.65,2619.38 1971.47,2619.56C1971.25,2619.74 1971.14,2620.03 1971.14,2620.36L1971.14,2641.65C1971.14,2642.85 1971.36,2643.86 1971.76,2644.77C1972.16,2645.68 1972.7,2646.37 1973.43,2646.88C1974.12,2647.39 1974.96,2647.64 1975.86,2647.64L1976.59,2647.64Z" style="fill:rgb(241,93,39);fill-rule:nonzero;stroke:rgb(239,99,34);stroke-width:0.24px;"/>
    </g>
    <g transform="matrix(4.16667,0,0,4.16667,-7221.21,-10334.4)">
        <path d="M1995.53,2655.6C1995.85,2655.27 1996.04,2654.83 1996.04,2654.29L1996.04,2644.48C1996.87,2645.5 1997.92,2646.3 1999.12,2646.88C2000.32,2647.49 2001.63,2647.79 2003.05,2647.79C2004.83,2647.79 2006.39,2647.35 2007.81,2646.44C2009.22,2645.57 2010.31,2644.37 2011.15,2642.85C2011.95,2641.36 2012.35,2639.65 2012.35,2637.72C2012.35,2635.8 2011.91,2634.09 2011.04,2632.56C2010.13,2631.04 2008.93,2629.84 2007.44,2628.93C2005.95,2628.06 2004.25,2627.62 2002.32,2627.62C2000.43,2627.62 1998.72,2628.06 1997.23,2628.93C1995.74,2629.84 1994.55,2631.04 1993.67,2632.56C1992.8,2634.09 1992.37,2635.8 1992.33,2637.72L1992.33,2654.29C1992.33,2654.83 1992.51,2655.27 1992.87,2655.6C1993.2,2655.96 1993.64,2656.14 1994.18,2656.14C1994.73,2656.14 1995.2,2655.96 1995.53,2655.6ZM1999.05,2643.61C1998.07,2643.03 1997.27,2642.23 1996.73,2641.17C1996.18,2640.16 1995.89,2638.99 1995.89,2637.72C1995.89,2636.41 1996.18,2635.25 1996.73,2634.2C1997.27,2633.18 1998.07,2632.38 1999.05,2631.76C2000.03,2631.18 2001.12,2630.89 2002.32,2630.89C2003.56,2630.89 2004.64,2631.18 2005.63,2631.76C2006.61,2632.38 2007.37,2633.18 2007.95,2634.2C2008.5,2635.25 2008.79,2636.41 2008.79,2637.72C2008.79,2638.99 2008.5,2640.16 2007.95,2641.17C2007.37,2642.23 2006.61,2643.03 2005.63,2643.61C2004.64,2644.22 2003.56,2644.52 2002.32,2644.52C2001.12,2644.52 2000.03,2644.22 1999.05,2643.61Z" style="fill:rgb(241,93,39);fill-rule:nonzero;stroke:rgb(239,99,34);stroke-width:0.24px;"/>
    </g>
    <g transform="matrix(4.16667,0,0,4.16667,-7221.21,-10334.4)">
        <path d="M2023.61,2643.61C2022.63,2643.03 2021.83,2642.23 2021.28,2641.17C2020.7,2640.16 2020.41,2638.99 2020.41,2637.72C2020.41,2636.41 2020.7,2635.25 2021.28,2634.2C2021.83,2633.18 2022.63,2632.38 2023.61,2631.76C2024.59,2631.18 2025.68,2630.89 2026.88,2630.89C2028.11,2630.89 2029.2,2631.18 2030.18,2631.76C2031.17,2632.38 2031.93,2633.18 2032.47,2634.2C2033.02,2635.25 2033.31,2636.41 2033.31,2637.72C2033.31,2638.99 2033.02,2640.16 2032.47,2641.17C2031.93,2642.23 2031.17,2643.03 2030.18,2643.61C2029.2,2644.22 2028.11,2644.52 2026.88,2644.52C2025.68,2644.52 2024.59,2644.22 2023.61,2643.61ZM2036.36,2647.13C2036.69,2646.8 2036.87,2646.37 2036.87,2645.82L2036.87,2637.72C2036.87,2635.8 2036.43,2634.09 2035.56,2632.56C2034.65,2631.04 2033.46,2629.84 2031.97,2628.93C2030.48,2628.06 2028.77,2627.62 2026.88,2627.62C2024.99,2627.62 2023.28,2628.06 2021.79,2628.93C2020.27,2629.84 2019.07,2631.04 2018.2,2632.56C2017.29,2634.09 2016.85,2635.8 2016.85,2637.72C2016.85,2639.65 2017.25,2641.36 2018.09,2642.85C2018.89,2644.37 2019.98,2645.57 2021.39,2646.44C2022.81,2647.35 2024.37,2647.79 2026.15,2647.79C2027.93,2647.79 2029.5,2647.35 2030.91,2646.44C2031.78,2645.9 2032.55,2645.21 2033.16,2644.37L2033.16,2645.82C2033.16,2646.37 2033.35,2646.8 2033.71,2647.13C2034.04,2647.49 2034.47,2647.68 2035.02,2647.68C2035.56,2647.68 2036,2647.49 2036.36,2647.13Z" style="fill:rgb(241,93,39);fill-rule:nonzero;stroke:rgb(239,99,34);stroke-width:0.24px;"/>
    </g>
    <g transform="matrix(4.16667,0,0,4.16667,-7221.21,-10334.4)">
        <path d="M2049.95,2631.62C2050.46,2631.62 2050.86,2631.47 2051.18,2631.18C2051.51,2630.89 2051.66,2630.53 2051.66,2630.09C2051.66,2629.62 2051.51,2629.22 2051.18,2628.93C2050.86,2628.64 2050.46,2628.49 2049.95,2628.49L2046.86,2628.49L2046.86,2623.26C2046.86,2622.72 2046.68,2622.28 2046.35,2621.95C2046.03,2621.63 2045.59,2621.45 2045.04,2621.45C2044.5,2621.45 2044.06,2621.63 2043.74,2621.95C2043.41,2622.28 2043.23,2622.72 2043.23,2623.26L2043.23,2628.49L2041.56,2628.49C2041.05,2628.49 2040.65,2628.64 2040.32,2628.93C2039.99,2629.22 2039.85,2629.62 2039.85,2630.09C2039.85,2630.53 2039.99,2630.89 2040.32,2631.18C2040.65,2631.47 2041.05,2631.62 2041.56,2631.62L2043.23,2631.62L2043.23,2640.59C2043.23,2641.94 2043.52,2643.14 2044.06,2644.19C2044.61,2645.24 2045.37,2646.08 2046.35,2646.7C2047.33,2647.31 2048.42,2647.64 2049.62,2647.64L2050.28,2647.64C2050.89,2647.64 2051.44,2647.46 2051.84,2647.13C2052.24,2646.8 2052.42,2646.37 2052.42,2645.82C2052.42,2645.28 2052.27,2644.84 2051.98,2644.52C2051.66,2644.19 2051.29,2644.01 2050.86,2644.01L2049.62,2644.01C2048.86,2644.01 2048.2,2643.68 2047.66,2643.03C2047.12,2642.37 2046.86,2641.57 2046.86,2640.59L2046.86,2631.62L2049.95,2631.62Z" style="fill:rgb(241,93,39);fill-rule:nonzero;stroke:rgb(239,99,34);stroke-width:0.24px;"/>
    </g>
    <g transform="matrix(4.16667,0,0,4.16667,-7221.21,-10334.4)">
        <path d="M2060.16,2647.17C2060.45,2646.84 2060.59,2646.41 2060.59,2645.82L2060.59,2635.22C2060.59,2634.09 2060.96,2633.18 2061.68,2632.45C2062.37,2631.73 2063.35,2631.22 2064.59,2630.97C2065.82,2630.71 2067.2,2630.71 2068.77,2631.04C2069.09,2631.11 2069.38,2631.11 2069.64,2631.07C2069.89,2631.04 2070.15,2630.89 2070.37,2630.71C2070.55,2630.53 2070.69,2630.27 2070.76,2629.95C2070.95,2629.29 2070.66,2628.71 2069.97,2628.24C2069.24,2627.77 2068.15,2627.55 2066.7,2627.55C2065.24,2627.55 2063.9,2627.88 2062.7,2628.57C2061.86,2629.04 2061.14,2629.62 2060.59,2630.35L2060.59,2629.58C2060.59,2628.97 2060.45,2628.53 2060.16,2628.2C2059.83,2627.91 2059.39,2627.77 2058.78,2627.77C2058.2,2627.77 2057.76,2627.91 2057.43,2628.24C2057.11,2628.57 2056.96,2629 2056.96,2629.58L2056.96,2645.82C2056.96,2646.44 2057.11,2646.88 2057.43,2647.17C2057.76,2647.49 2058.2,2647.64 2058.78,2647.64C2059.39,2647.64 2059.83,2647.49 2060.16,2647.17Z" style="fill:rgb(241,93,39);fill-rule:nonzero;stroke:rgb(239,99,34);stroke-width:0.24px;"/>
    </g>
    <g transform="matrix(4.16667,0,0,4.16667,-7221.21,-10334.4)">
        <path d="M2078.18,2647.1C2078.5,2646.77 2078.68,2646.33 2078.68,2645.79L2078.68,2629.62C2078.68,2629.08 2078.5,2628.6 2078.18,2628.28C2077.85,2627.95 2077.38,2627.77 2076.83,2627.77C2076.29,2627.77 2075.85,2627.95 2075.52,2628.28C2075.16,2628.6 2074.98,2629.08 2074.98,2629.62L2074.98,2645.79C2074.98,2646.33 2075.16,2646.77 2075.52,2647.1C2075.85,2647.46 2076.29,2647.64 2076.83,2647.64C2077.38,2647.64 2077.85,2647.46 2078.18,2647.1ZM2078.54,2623.81C2079.01,2623.34 2079.23,2622.79 2079.23,2622.14C2079.23,2621.48 2079.01,2620.9 2078.54,2620.43C2078.07,2619.96 2077.49,2619.74 2076.83,2619.74C2076.18,2619.74 2075.63,2619.96 2075.16,2620.43C2074.69,2620.9 2074.43,2621.48 2074.43,2622.14C2074.43,2622.79 2074.69,2623.34 2075.16,2623.81C2075.63,2624.28 2076.18,2624.53 2076.83,2624.53C2077.49,2624.53 2078.07,2624.28 2078.54,2623.81Z" style="fill:rgb(241,93,39);fill-rule:nonzero;stroke:rgb(239,99,34);stroke-width:0.24px;"/>
    </g>
    <g transform="matrix(4.16667,0,0,4.16667,-7221.21,-10334.4)">
        <path d="M2100.92,2647.13C2101.25,2646.8 2101.43,2646.37 2101.43,2645.82L2101.43,2635.58C2101.43,2634.23 2101.83,2633.11 2102.66,2632.24C2103.46,2631.36 2104.48,2630.93 2105.75,2630.93C2106.95,2630.93 2107.93,2631.29 2108.69,2632.02C2109.46,2632.78 2109.82,2633.91 2109.82,2635.43L2109.82,2645.82C2109.82,2646.37 2110,2646.8 2110.37,2647.13C2110.69,2647.49 2111.13,2647.68 2111.67,2647.68C2112.22,2647.68 2112.69,2647.49 2113.02,2647.13C2113.34,2646.8 2113.53,2646.37 2113.53,2645.82L2113.53,2635.43C2113.53,2633.76 2113.24,2632.35 2112.65,2631.15C2112.04,2629.98 2111.2,2629.11 2110.15,2628.49C2109.09,2627.88 2107.86,2627.59 2106.48,2627.59C2104.91,2627.59 2103.5,2627.91 2102.3,2628.6C2101.39,2629.11 2100.66,2629.73 2100.16,2630.46C2099.57,2629.62 2098.88,2629 2098.05,2628.49C2096.99,2627.88 2095.76,2627.59 2094.38,2627.59C2092.96,2627.59 2091.69,2627.91 2090.57,2628.6C2090.09,2628.89 2089.66,2629.22 2089.26,2629.62C2089.29,2629.11 2089.11,2628.64 2088.78,2628.31C2088.46,2627.99 2087.99,2627.8 2087.44,2627.8C2086.89,2627.8 2086.46,2627.99 2086.13,2628.31C2085.77,2628.64 2085.59,2629.11 2085.59,2629.66L2085.59,2645.82C2085.59,2646.37 2085.77,2646.8 2086.13,2647.13C2086.46,2647.49 2086.89,2647.68 2087.44,2647.68C2087.99,2647.68 2088.46,2647.49 2088.78,2647.13C2089.11,2646.8 2089.29,2646.37 2089.29,2645.82L2089.29,2635.58C2089.29,2634.23 2089.69,2633.11 2090.53,2632.24C2091.36,2631.36 2092.38,2630.93 2093.65,2630.93C2094.85,2630.93 2095.83,2631.29 2096.6,2632.02C2097.36,2632.78 2097.72,2633.91 2097.72,2635.43L2097.72,2645.82C2097.72,2646.37 2097.9,2646.8 2098.27,2647.13C2098.59,2647.49 2099.03,2647.68 2099.57,2647.68C2100.12,2647.68 2100.59,2647.49 2100.92,2647.13Z" style="fill:rgb(241,93,39);fill-rule:nonzero;stroke:rgb(239,99,34);stroke-width:0.24px;"/>
    </g>
    <g transform="matrix(4.16667,0,0,4.16667,-7221.21,-10334.4)">
        <path d="M2133.87,2646.48C2135.36,2645.64 2136.56,2644.44 2137.39,2642.92C2138.23,2641.43 2138.66,2639.68 2138.66,2637.72C2138.66,2635.72 2138.23,2633.98 2137.39,2632.45C2136.52,2630.97 2135.32,2629.77 2133.83,2628.89C2132.34,2628.06 2130.6,2627.62 2128.68,2627.62C2126.71,2627.62 2124.97,2628.06 2123.48,2628.89C2121.99,2629.77 2120.79,2630.97 2119.95,2632.45C2119.08,2633.98 2118.65,2635.72 2118.65,2637.72C2118.65,2639.68 2119.08,2641.43 2119.95,2642.92C2120.79,2644.44 2121.99,2645.64 2123.48,2646.48C2124.97,2647.35 2126.71,2647.79 2128.68,2647.79C2130.64,2647.79 2132.38,2647.35 2133.87,2646.48ZM2125.33,2643.64C2124.35,2643.06 2123.59,2642.26 2123.04,2641.25C2122.5,2640.23 2122.21,2639.07 2122.21,2637.72C2122.21,2636.38 2122.5,2635.22 2123.04,2634.16C2123.59,2633.14 2124.35,2632.35 2125.33,2631.76C2126.31,2631.18 2127.4,2630.89 2128.68,2630.89C2129.95,2630.89 2131.04,2631.18 2132.02,2631.76C2133,2632.35 2133.76,2633.14 2134.31,2634.16C2134.85,2635.22 2135.11,2636.38 2135.11,2637.72C2135.11,2639.07 2134.85,2640.23 2134.31,2641.25C2133.76,2642.26 2133,2643.06 2132.02,2643.64C2131.04,2644.22 2129.95,2644.52 2128.68,2644.52C2127.4,2644.52 2126.31,2644.22 2125.33,2643.64Z" style="fill:rgb(241,93,39);fill-rule:nonzero;stroke:rgb(239,99,34);stroke-width:0.24px;"/>
    </g>
    <g transform="matrix(4.16667,0,0,4.16667,-7221.21,-10334.4)">
        <path d="M2147.39,2647.13C2147.71,2646.8 2147.89,2646.37 2147.89,2645.82L2147.89,2635.58C2147.89,2634.67 2148.15,2633.87 2148.62,2633.18C2149.09,2632.49 2149.75,2631.95 2150.58,2631.55C2151.42,2631.15 2152.33,2630.93 2153.34,2630.93C2154.47,2630.93 2155.45,2631.15 2156.32,2631.55C2157.16,2631.98 2157.85,2632.64 2158.36,2633.51C2158.87,2634.38 2159.12,2635.51 2159.12,2636.89L2159.12,2645.82C2159.12,2646.37 2159.3,2646.8 2159.66,2647.13C2159.99,2647.49 2160.43,2647.68 2160.97,2647.68C2161.52,2647.68 2161.95,2647.49 2162.32,2647.13C2162.64,2646.8 2162.82,2646.37 2162.82,2645.82L2162.82,2636.89C2162.82,2634.89 2162.46,2633.18 2161.7,2631.8C2160.94,2630.42 2159.88,2629.37 2158.57,2628.64C2157.23,2627.95 2155.74,2627.59 2154.07,2627.59C2152.47,2627.59 2151.02,2627.95 2149.75,2628.64C2149.06,2629.04 2148.4,2629.47 2147.89,2630.06L2147.89,2629.62C2147.89,2629.08 2147.71,2628.6 2147.39,2628.28C2147.06,2627.95 2146.59,2627.77 2146.04,2627.77C2145.5,2627.77 2145.06,2627.95 2144.73,2628.28C2144.37,2628.6 2144.19,2629.08 2144.19,2629.62L2144.19,2645.82C2144.19,2646.37 2144.37,2646.8 2144.73,2647.13C2145.06,2647.49 2145.5,2647.68 2146.04,2647.68C2146.59,2647.68 2147.06,2647.49 2147.39,2647.13Z" style="fill:rgb(241,93,39);fill-rule:nonzero;stroke:rgb(239,99,34);stroke-width:0.24px;"/>
    </g>
    <g transform="matrix(4.16667,0,0,4.16667,-7221.21,-10334.4)">
        <path d="M2172.53,2647.1C2172.85,2646.77 2173.03,2646.33 2173.03,2645.79L2173.03,2629.62C2173.03,2629.08 2172.85,2628.6 2172.53,2628.28C2172.2,2627.95 2171.73,2627.77 2171.18,2627.77C2170.64,2627.77 2170.2,2627.95 2169.87,2628.28C2169.51,2628.6 2169.33,2629.08 2169.33,2629.62L2169.33,2645.79C2169.33,2646.33 2169.51,2646.77 2169.87,2647.1C2170.2,2647.46 2170.64,2647.64 2171.18,2647.64C2171.73,2647.64 2172.2,2647.46 2172.53,2647.1ZM2172.89,2623.81C2173.36,2623.34 2173.58,2622.79 2173.58,2622.14C2173.58,2621.48 2173.36,2620.9 2172.89,2620.43C2172.42,2619.96 2171.84,2619.74 2171.18,2619.74C2170.53,2619.74 2169.98,2619.96 2169.51,2620.43C2169.04,2620.9 2168.78,2621.48 2168.78,2622.14C2168.78,2622.79 2169.04,2623.34 2169.51,2623.81C2169.98,2624.28 2170.53,2624.53 2171.18,2624.53C2171.84,2624.53 2172.42,2624.28 2172.89,2623.81Z" style="fill:rgb(241,93,39);fill-rule:nonzero;stroke:rgb(239,99,34);stroke-width:0.24px;"/>
    </g>
    <g transform="matrix(4.16667,0,0,4.16667,-7221.21,-10334.4)">
        <path d="M2194.14,2646.48C2195.63,2645.64 2196.83,2644.44 2197.66,2642.92C2198.5,2641.43 2198.94,2639.68 2198.94,2637.72C2198.94,2635.72 2198.5,2633.98 2197.66,2632.45C2196.79,2630.97 2195.59,2629.77 2194.11,2628.89C2192.62,2628.06 2190.87,2627.62 2188.95,2627.62C2186.98,2627.62 2185.24,2628.06 2183.75,2628.89C2182.26,2629.77 2181.06,2630.97 2180.23,2632.45C2179.36,2633.98 2178.92,2635.72 2178.92,2637.72C2178.92,2639.68 2179.36,2641.43 2180.23,2642.92C2181.06,2644.44 2182.26,2645.64 2183.75,2646.48C2185.24,2647.35 2186.98,2647.79 2188.95,2647.79C2190.91,2647.79 2192.65,2647.35 2194.14,2646.48ZM2185.6,2643.64C2184.62,2643.06 2183.86,2642.26 2183.32,2641.25C2182.77,2640.23 2182.48,2639.07 2182.48,2637.72C2182.48,2636.38 2182.77,2635.22 2183.32,2634.16C2183.86,2633.14 2184.62,2632.35 2185.6,2631.76C2186.58,2631.18 2187.67,2630.89 2188.95,2630.89C2190.22,2630.89 2191.31,2631.18 2192.29,2631.76C2193.27,2632.35 2194.03,2633.14 2194.58,2634.16C2195.12,2635.22 2195.38,2636.38 2195.38,2637.72C2195.38,2639.07 2195.12,2640.23 2194.58,2641.25C2194.03,2642.26 2193.27,2643.06 2192.29,2643.64C2191.31,2644.22 2190.22,2644.52 2188.95,2644.52C2187.67,2644.52 2186.58,2644.22 2185.6,2643.64Z" style="fill:rgb(241,93,39);fill-rule:nonzero;stroke:rgb(239,99,34);stroke-width:0.24px;"/>
    </g>
    <g transform="matrix(4.16667,0,0,4.16667,-7221.21,-10334.4)">
        <path d="M2230.17,2647.31C2230.35,2647.13 2230.46,2646.88 2230.46,2646.55L2230.46,2636.05L2230.43,2635.8L2230.46,2635.8C2230.43,2633.94 2230.93,2632.45 2231.99,2631.33C2233.04,2630.24 2234.39,2629.69 2236.06,2629.69C2237.62,2629.69 2238.93,2630.27 2239.91,2631.47C2240.89,2632.67 2241.36,2634.2 2241.36,2636.05L2241.36,2646.55C2241.36,2646.88 2241.47,2647.13 2241.69,2647.31C2241.87,2647.53 2242.12,2647.64 2242.45,2647.64C2242.78,2647.64 2243.07,2647.53 2243.25,2647.31C2243.43,2647.13 2243.54,2646.88 2243.54,2646.55L2243.54,2636.05C2243.54,2634.38 2243.21,2632.89 2242.6,2631.62C2241.94,2630.35 2241.07,2629.33 2239.95,2628.6C2238.82,2627.88 2237.55,2627.51 2236.06,2627.51C2234.6,2627.51 2233.3,2627.84 2232.13,2628.53C2230.97,2629.22 2230.06,2630.2 2229.41,2631.4C2228.76,2630.24 2227.92,2629.29 2226.87,2628.6C2225.74,2627.88 2224.47,2627.51 2222.98,2627.51C2221.6,2627.51 2220.36,2627.84 2219.24,2628.53C2218.44,2629 2217.78,2629.62 2217.27,2630.38L2217.27,2628.86C2217.27,2628.53 2217.16,2628.24 2216.98,2628.06C2216.8,2627.88 2216.51,2627.77 2216.18,2627.77C2215.86,2627.77 2215.6,2627.88 2215.42,2628.06C2215.2,2628.24 2215.1,2628.53 2215.1,2628.86L2215.1,2646.55C2215.1,2646.88 2215.2,2647.13 2215.42,2647.31C2215.6,2647.53 2215.86,2647.64 2216.18,2647.64C2216.51,2647.64 2216.8,2647.53 2216.98,2647.31C2217.16,2647.13 2217.27,2646.88 2217.27,2646.55L2217.27,2635.43C2217.27,2633.73 2217.82,2632.35 2218.87,2631.29C2219.93,2630.24 2221.31,2629.69 2222.98,2629.69C2224.54,2629.69 2225.85,2630.27 2226.83,2631.47C2227.81,2632.67 2228.28,2634.2 2228.28,2636.05L2228.28,2646.55C2228.28,2646.88 2228.39,2647.13 2228.61,2647.31C2228.79,2647.53 2229.05,2647.64 2229.37,2647.64C2229.7,2647.64 2229.99,2647.53 2230.17,2647.31Z" style="fill:rgb(241,93,39);fill-rule:nonzero;stroke:rgb(239,99,34);stroke-width:0.24px;"/>
    </g>
    <g transform="matrix(4.16667,0,0,4.16667,-7221.21,-10334.4)">
        <path d="M2254.73,2644.73C2253.53,2644.04 2252.55,2643.06 2251.86,2641.83C2251.17,2640.63 2250.81,2639.25 2250.81,2637.72C2250.81,2636.16 2251.17,2634.78 2251.86,2633.54C2252.55,2632.35 2253.53,2631.36 2254.73,2630.64C2255.93,2629.95 2257.31,2629.58 2258.8,2629.58C2260.33,2629.58 2261.71,2629.95 2262.91,2630.64C2264.1,2631.36 2265.05,2632.35 2265.74,2633.54C2266.43,2634.78 2266.76,2636.16 2266.76,2637.72C2266.76,2639.25 2266.43,2640.63 2265.74,2641.83C2265.05,2643.06 2264.1,2644.04 2262.91,2644.73C2261.71,2645.46 2260.33,2645.82 2258.8,2645.82C2257.31,2645.82 2255.93,2645.46 2254.73,2644.73ZM2268.64,2647.31C2268.83,2647.13 2268.94,2646.88 2268.94,2646.55L2268.94,2637.72C2268.94,2635.8 2268.5,2634.05 2267.63,2632.49C2266.72,2630.97 2265.52,2629.77 2263.99,2628.86C2262.47,2627.99 2260.72,2627.55 2258.8,2627.55C2256.87,2627.55 2255.13,2627.99 2253.6,2628.86C2252.04,2629.77 2250.84,2630.97 2249.97,2632.49C2249.06,2634.05 2248.63,2635.8 2248.63,2637.72C2248.63,2639.65 2249.06,2641.36 2249.97,2642.88C2250.84,2644.44 2252.04,2645.64 2253.6,2646.51C2255.13,2647.42 2256.87,2647.86 2258.8,2647.86C2260.58,2647.86 2262.14,2647.46 2263.52,2646.7C2264.87,2645.97 2265.92,2644.95 2266.76,2643.68L2266.76,2646.55C2266.76,2646.88 2266.87,2647.13 2267.08,2647.31C2267.26,2647.53 2267.55,2647.64 2267.88,2647.64C2268.21,2647.64 2268.46,2647.53 2268.64,2647.31Z" style="fill:rgb(241,93,39);fill-rule:nonzero;stroke:rgb(239,99,34);stroke-width:0.24px;"/>
    </g>
    <g transform="matrix(4.16667,0,0,4.16667,-7221.21,-10334.4)">
        <path d="M2282.67,2630.46C2282.96,2630.46 2283.21,2630.35 2283.39,2630.16C2283.58,2629.98 2283.65,2629.77 2283.65,2629.47C2283.65,2629.18 2283.58,2628.93 2283.39,2628.75C2283.21,2628.57 2282.96,2628.49 2282.67,2628.49L2277.87,2628.49L2277.87,2622.57C2277.87,2622.24 2277.76,2621.95 2277.58,2621.74C2277.36,2621.55 2277.07,2621.45 2276.75,2621.45C2276.42,2621.45 2276.16,2621.55 2275.98,2621.74C2275.76,2621.95 2275.66,2622.24 2275.66,2622.57L2275.66,2628.49L2272.82,2628.49C2272.53,2628.49 2272.31,2628.57 2272.13,2628.75C2271.95,2628.93 2271.84,2629.18 2271.84,2629.47C2271.84,2629.77 2271.95,2629.98 2272.13,2630.16C2272.31,2630.35 2272.53,2630.46 2272.82,2630.46L2275.66,2630.46L2275.66,2640.66C2275.66,2642.01 2275.95,2643.17 2276.53,2644.22C2277.11,2645.28 2277.91,2646.11 2278.96,2646.7C2280.02,2647.31 2281.18,2647.6 2282.52,2647.64L2283.36,2647.64C2283.68,2647.64 2283.98,2647.53 2284.19,2647.31C2284.38,2647.13 2284.49,2646.88 2284.49,2646.55C2284.49,2646.22 2284.38,2645.93 2284.19,2645.72C2283.98,2645.53 2283.68,2645.42 2283.36,2645.42L2282.56,2645.42C2281.18,2645.42 2280.05,2644.99 2279.18,2644.08C2278.31,2643.21 2277.87,2642.08 2277.87,2640.66L2277.87,2630.46L2282.67,2630.46Z" style="fill:rgb(241,93,39);fill-rule:nonzero;stroke:rgb(239,99,34);stroke-width:0.24px;"/>
    </g>
    <g transform="matrix(4.16667,0,0,4.16667,-7221.21,-10334.4)">
        <path d="M2301.41,2647.13C2302.65,2646.66 2303.67,2646.08 2304.43,2645.39C2304.68,2645.17 2304.79,2644.91 2304.79,2644.66C2304.76,2644.41 2304.61,2644.15 2304.36,2643.93C2304.18,2643.75 2303.92,2643.68 2303.67,2643.68C2303.38,2643.72 2303.12,2643.83 2302.94,2644.01C2302.4,2644.55 2301.63,2644.95 2300.69,2645.28C2299.71,2645.61 2298.76,2645.79 2297.82,2645.79C2296.33,2645.79 2294.98,2645.42 2293.82,2644.73C2292.66,2644.04 2291.75,2643.1 2291.1,2641.9C2290.44,2640.7 2290.12,2639.28 2290.12,2637.72C2290.12,2636.12 2290.44,2634.71 2291.06,2633.51C2291.68,2632.31 2292.51,2631.33 2293.6,2630.64C2294.66,2629.95 2295.89,2629.62 2297.27,2629.62C2298.73,2629.62 2300,2629.95 2301.09,2630.64C2302.14,2631.33 2302.98,2632.31 2303.56,2633.51C2304.14,2634.71 2304.39,2636.12 2304.36,2637.69L2305.96,2636.49L2289.39,2636.49L2289.39,2638.38L2305.38,2638.38C2305.7,2638.38 2305.96,2638.27 2306.14,2638.09C2306.32,2637.9 2306.43,2637.69 2306.43,2637.36C2306.43,2635.43 2306.03,2633.76 2305.27,2632.27C2304.5,2630.82 2303.41,2629.66 2302.03,2628.82C2300.65,2627.99 2299.05,2627.59 2297.27,2627.59C2295.46,2627.59 2293.86,2628.02 2292.44,2628.89C2291.02,2629.77 2289.93,2630.97 2289.14,2632.45C2288.34,2633.98 2287.94,2635.72 2287.94,2637.72C2287.94,2639.68 2288.37,2641.43 2289.21,2642.95C2290.04,2644.48 2291.24,2645.68 2292.73,2646.51C2294.22,2647.39 2295.89,2647.82 2297.82,2647.82C2298.94,2647.82 2300.14,2647.6 2301.41,2647.13Z" style="fill:rgb(241,93,39);fill-rule:nonzero;stroke:rgb(239,99,34);stroke-width:0.24px;"/>
    </g>
    <g transform="matrix(4.16667,0,0,4.16667,-7221.21,-10334.4)">
        <path d="M2313.04,2647.31C2313.22,2647.13 2313.33,2646.88 2313.33,2646.55L2313.33,2635.51C2313.33,2634.38 2313.59,2633.36 2314.13,2632.45C2314.68,2631.58 2315.4,2630.89 2316.35,2630.38C2317.29,2629.88 2318.38,2629.62 2319.58,2629.62C2320.05,2629.62 2320.45,2629.66 2320.85,2629.69C2321.22,2629.77 2321.54,2629.77 2321.8,2629.69C2322.05,2629.62 2322.23,2629.4 2322.3,2629.04C2322.41,2628.49 2322.23,2628.09 2321.72,2627.88C2321.22,2627.66 2320.49,2627.55 2319.58,2627.55C2318.24,2627.55 2317,2627.88 2315.87,2628.57C2314.82,2629.22 2313.99,2630.02 2313.33,2631.11L2313.33,2628.86C2313.33,2628.53 2313.22,2628.24 2313.04,2628.06C2312.86,2627.88 2312.57,2627.77 2312.24,2627.77C2311.91,2627.77 2311.66,2627.88 2311.48,2628.06C2311.26,2628.24 2311.15,2628.53 2311.15,2628.86L2311.15,2646.55C2311.15,2646.88 2311.26,2647.13 2311.48,2647.31C2311.66,2647.53 2311.91,2647.64 2312.24,2647.64C2312.57,2647.64 2312.86,2647.53 2313.04,2647.31Z" style="fill:rgb(241,93,39);fill-rule:nonzero;stroke:rgb(239,99,34);stroke-width:0.24px;"/>
    </g>
    <g transform="matrix(4.16667,0,0,4.16667,-7221.21,-10334.4)">
        <path d="M2329.68,2647.31C2329.86,2647.13 2329.97,2646.88 2329.97,2646.55L2329.97,2628.86C2329.97,2628.53 2329.86,2628.24 2329.68,2628.06C2329.5,2627.88 2329.21,2627.77 2328.88,2627.77C2328.55,2627.77 2328.3,2627.88 2328.12,2628.06C2327.9,2628.24 2327.79,2628.53 2327.79,2628.86L2327.79,2646.55C2327.79,2646.88 2327.9,2647.13 2328.12,2647.31C2328.3,2647.53 2328.55,2647.64 2328.88,2647.64C2329.21,2647.64 2329.5,2647.53 2329.68,2647.31ZM2330.08,2623.08C2330.41,2622.75 2330.55,2622.35 2330.55,2621.88C2330.55,2621.34 2330.37,2620.9 2330.04,2620.61C2329.68,2620.36 2329.28,2620.21 2328.88,2620.21C2328.44,2620.21 2328.04,2620.36 2327.72,2620.61C2327.35,2620.9 2327.17,2621.34 2327.17,2621.88C2327.17,2622.35 2327.35,2622.75 2327.68,2623.08C2328.01,2623.41 2328.37,2623.59 2328.84,2623.59C2329.32,2623.59 2329.75,2623.41 2330.08,2623.08Z" style="fill:rgb(241,93,39);fill-rule:nonzero;stroke:rgb(239,99,34);stroke-width:0.24px;"/>
    </g>
    <g transform="matrix(4.16667,0,0,4.16667,-7221.21,-10334.4)">
        <path d="M2342.25,2644.73C2341.05,2644.04 2340.07,2643.06 2339.38,2641.83C2338.69,2640.63 2338.33,2639.25 2338.33,2637.72C2338.33,2636.16 2338.69,2634.78 2339.38,2633.54C2340.07,2632.35 2341.05,2631.36 2342.25,2630.64C2343.45,2629.95 2344.83,2629.58 2346.32,2629.58C2347.85,2629.58 2349.22,2629.95 2350.42,2630.64C2351.62,2631.36 2352.57,2632.35 2353.26,2633.54C2353.95,2634.78 2354.28,2636.16 2354.28,2637.72C2354.28,2639.25 2353.95,2640.63 2353.26,2641.83C2352.57,2643.06 2351.62,2644.04 2350.42,2644.73C2349.22,2645.46 2347.85,2645.82 2346.32,2645.82C2344.83,2645.82 2343.45,2645.46 2342.25,2644.73ZM2356.16,2647.31C2356.35,2647.13 2356.45,2646.88 2356.45,2646.55L2356.45,2637.72C2356.45,2635.8 2356.02,2634.05 2355.15,2632.49C2354.24,2630.97 2353.04,2629.77 2351.51,2628.86C2349.99,2627.99 2348.24,2627.55 2346.32,2627.55C2344.39,2627.55 2342.65,2627.99 2341.12,2628.86C2339.56,2629.77 2338.36,2630.97 2337.49,2632.49C2336.58,2634.05 2336.15,2635.8 2336.15,2637.72C2336.15,2639.65 2336.58,2641.36 2337.49,2642.88C2338.36,2644.44 2339.56,2645.64 2341.12,2646.51C2342.65,2647.42 2344.39,2647.86 2346.32,2647.86C2348.1,2647.86 2349.66,2647.46 2351.04,2646.7C2352.39,2645.97 2353.44,2644.95 2354.28,2643.68L2354.28,2646.55C2354.28,2646.88 2354.38,2647.13 2354.6,2647.31C2354.78,2647.53 2355.08,2647.64 2355.4,2647.64C2355.73,2647.64 2355.98,2647.53 2356.16,2647.31Z" style="fill:rgb(241,93,39);fill-rule:nonzero;stroke:rgb(239,99,34);stroke-width:0.24px;"/>
    </g>
    <g transform="matrix(4.16667,0,0,4.16667,-7221.21,-10334.4)">
        <path d="M2366.63,2647.64C2366.95,2647.64 2367.24,2647.53 2367.43,2647.31C2367.61,2647.13 2367.72,2646.88 2367.72,2646.55C2367.72,2646.22 2367.64,2645.93 2367.46,2645.75C2367.28,2645.57 2367.06,2645.46 2366.81,2645.46L2365.9,2645.46C2365.14,2645.46 2364.56,2645.1 2364.08,2644.37C2363.61,2643.68 2363.36,2642.77 2363.36,2641.65L2363.36,2620.36C2363.36,2620.03 2363.25,2619.74 2363.07,2619.56C2362.89,2619.38 2362.59,2619.27 2362.27,2619.27C2361.94,2619.27 2361.69,2619.38 2361.5,2619.56C2361.29,2619.74 2361.18,2620.03 2361.18,2620.36L2361.18,2641.65C2361.18,2642.85 2361.39,2643.86 2361.8,2644.77C2362.2,2645.68 2362.74,2646.37 2363.47,2646.88C2364.16,2647.39 2364.99,2647.64 2365.9,2647.64L2366.63,2647.64Z" style="fill:rgb(241,93,39);fill-rule:nonzero;stroke:rgb(239,99,34);stroke-width:0.24px;"/>
    </g>
    <g transform="matrix(4.16667,0,0,4.16667,-7221.21,-10334.4)">
        <path d="M2373.42,2647.68C2373.75,2647.31 2373.93,2646.88 2373.93,2646.37C2373.93,2645.86 2373.75,2645.42 2373.42,2645.06C2373.06,2644.73 2372.62,2644.55 2372.11,2644.55C2371.6,2644.55 2371.17,2644.73 2370.8,2645.06C2370.44,2645.39 2370.26,2645.82 2370.26,2646.37C2370.26,2646.91 2370.44,2647.35 2370.8,2647.68C2371.13,2648.04 2371.57,2648.22 2372.11,2648.22C2372.62,2648.22 2373.06,2648.04 2373.42,2647.68Z" style="fill:rgb(241,93,39);fill-rule:nonzero;stroke:rgb(239,99,34);stroke-width:0.24px;"/>
    </g>
    <g transform="matrix(4.16667,0,0,4.16667,-7221.21,-10334.4)">
        <path d="M1825.23,2634.59C1789.73,2634.59 1760.85,2605.57 1760.85,2569.91C1760.85,2534.25 1789.73,2505.23 1825.23,2505.23C1860.73,2505.23 1889.6,2534.25 1889.6,2569.91C1889.6,2605.57 1860.73,2634.59 1825.23,2634.59ZM1825.23,2480.37C1776.09,2480.37 1736.11,2520.54 1736.11,2569.91C1736.11,2588.56 1741.82,2605.89 1751.57,2620.24L1734.16,2651.59C1730.63,2657.94 1737.61,2664.95 1743.93,2661.41L1775.13,2643.91C1789.42,2653.7 1806.67,2659.44 1825.23,2659.44C1874.37,2659.44 1914.34,2619.28 1914.34,2569.91C1914.34,2520.54 1874.37,2480.37 1825.23,2480.37Z" style="fill:url(#_Radial1);stroke:rgb(239,99,34);stroke-width:0.24px;"/>
    </g>
    <g transform="matrix(4.16667,0,0,4.16667,-7221.21,-10334.4)">
        <path d="M1873.73,2569.91C1873.73,2543.22 1852.09,2521.58 1825.4,2521.58C1798.71,2521.58 1777.08,2543.22 1777.08,2569.91C1777.08,2587.23 1786.2,2602.42 1799.9,2610.95L1799.9,2577.72L1795.49,2572.61L1800.17,2572.61C1801.23,2564.92 1805.71,2558.33 1812.02,2554.42C1812.13,2554.35 1812.25,2554.28 1812.36,2554.21C1812.89,2553.89 1813.44,2553.6 1813.99,2553.32L1814.25,2553.18C1814.9,2552.86 1815.57,2552.57 1816.26,2552.3L1816.3,2552.29C1816.94,2552.05 1817.58,2551.83 1818.24,2551.64C1818.44,2551.58 1818.64,2551.53 1818.84,2551.48C1819.33,2551.35 1819.82,2551.24 1820.32,2551.13C1820.56,2551.09 1820.79,2551.04 1821.04,2551C1821.3,2550.95 1821.57,2550.91 1821.84,2550.88L1821.83,2550.88C1821.83,2550.88 1823.02,2548.28 1824.01,2546.12C1823.03,2545.67 1822.35,2544.69 1822.35,2543.55C1822.35,2541.99 1823.62,2540.73 1825.18,2540.73C1826.73,2540.73 1828,2541.99 1828,2543.55C1828,2544.69 1827.32,2545.67 1826.35,2546.12L1828.49,2550.81C1828.98,2550.87 1829.47,2550.94 1829.95,2551.02L1830.16,2551.06C1830.85,2551.19 1831.53,2551.35 1832.19,2551.54C1832.34,2551.58 1832.48,2551.62 1832.62,2551.66C1833.22,2551.84 1833.81,2552.03 1834.38,2552.25L1834.6,2552.33C1835.26,2552.58 1835.91,2552.87 1836.55,2553.18L1836.75,2553.28C1844.13,2556.97 1849.47,2564.12 1850.64,2572.61L1855.32,2572.61L1850.91,2577.72L1850.91,2610.95C1864.6,2602.42 1873.73,2587.23 1873.73,2569.91Z" style="fill:url(#_Radial2);stroke:rgb(239,99,34);stroke-width:0.24px;"/>
    </g>
    <g transform="matrix(4.16667,0,0,4.16667,-7221.21,-10334.4)">
        <path d="M1835.08,2617.26L1835.08,2587.28C1835.08,2581.93 1830.75,2577.6 1825.4,2577.6C1820.06,2577.6 1815.72,2581.93 1815.72,2587.28L1815.72,2617.26C1818.85,2617.9 1822.09,2618.23 1825.4,2618.23C1828.72,2618.23 1831.96,2617.9 1835.08,2617.26Z" style="fill:url(#_Radial3);stroke:rgb(239,99,34);stroke-width:0.24px;"/>
    </g>
    <g transform="matrix(4.16667,0,0,4.16667,-7221.21,-10334.4)">
        <path d="M1855.92,2534.75C1855.92,2537.92 1853.35,2540.48 1850.19,2540.48C1847.03,2540.48 1844.46,2537.92 1844.46,2534.75C1844.46,2531.59 1847.03,2529.02 1850.19,2529.02C1853.35,2529.02 1855.92,2531.59 1855.92,2534.75Z" style="fill:rgb(255,236,218);fill-rule:nonzero;stroke:rgb(239,99,34);stroke-width:0.24px;"/>
    </g>
    <defs>
        <radialGradient id="_Radial1" cx="0" cy="0" r="1" gradientUnits="userSpaceOnUse" gradientTransform="matrix(99.2899,-225.659,225.659,99.2899,1740.88,2752.52)"><stop offset="0" style="stop-color:rgb(249,172,136);stop-opacity:1"/><stop offset="1" style="stop-color:rgb(241,93,39);stop-opacity:1"/></radialGradient>
        <radialGradient id="_Radial2" cx="0" cy="0" r="1" gradientUnits="userSpaceOnUse" gradientTransform="matrix(9.18201e-13,-89.2602,89.2602,9.18201e-13,1825.58,2625.33)"><stop offset="0" style="stop-color:rgb(249,172,136);stop-opacity:1"/><stop offset="1" style="stop-color:rgb(241,93,39);stop-opacity:1"/></radialGradient>
        <radialGradient id="_Radial3" cx="0" cy="0" r="1" gradientUnits="userSpaceOnUse" gradientTransform="matrix(5.26346e-13,-51.1672,51.1672,5.26346e-13,1832.29,2677.31)"><stop offset="0" style="stop-color:rgb(249,172,136);stop-opacity:1"/><stop offset="1" style="stop-color:rgb(241,93,39);stop-opacity:1"/></radialGradient>
    </defs>
</svg>
